SourceHanSansSup-Regular.ufo
<glyph name="uni2EA6" format="2">
  <advance width="1000" height="1000"/>
  <unicode hex="2EA6"/>
  <unicode hex="4E2C"/>
  <outline>
    <contour>
      <point x="658" y="-80" type="line"/>
      <point x="658" y="839" type="line"/>
      <point x="735" y="839" type="line"/>
      <point x="735" y="-80" type="line"/>
    </contour>
    <contour>
      <point x="505" y="564"/>
      <point x="548" y="524" type="qcurve"/>
      <point x="494" y="460" type="line"/>
      <point x="451" y="501"/>
      <point x="294" y="623"/>
      <point x="221" y="674" type="qcurve"/>
      <point x="273" y="729" type="line"/>
      <point x="348" y="680"/>
    </contour>
    <contour>
      <point x="683" y="435" type="qcurve"/>
      <point x="713" y="364" type="line"/>
      <point x="590" y="297"/>
      <point x="185" y="78" type="qcurve" smooth="yes"/>
      <point x="177" y="72"/>
      <point x="162" y="66" type="qcurve"/>
      <point x="121" y="146" type="line"/>
      <point x="302" y="231"/>
    </contour>
  </outline>
</glyph>
<glyph name="uniE000" format="2">
  <advance width="1000"/>
  <unicode hex="E000"/>
  <outline>
    <contour>
      <point x="905" y="269"/>
      <point x="960" y="221" type="qcurve"/>
      <point x="899" y="166" type="line"/>
      <point x="846" y="215"/>
      <point x="657" y="347"/>
      <point x="561" y="402" type="qcurve"/>
      <point x="612" y="455" type="line"/>
      <point x="710" y="401"/>
    </contour>
    <contour>
      <point x="459" y="501" type="line"/>
      <point x="540" y="501" type="line"/>
      <point x="540" y="-78" type="line"/>
      <point x="459" y="-78" type="line"/>
    </contour>
    <contour>
      <point x="494" y="664" type="line"/>
      <point x="483" y="697"/>
      <point x="443" y="782"/>
      <point x="419" y="822" type="qcurve"/>
      <point x="492" y="846" type="line"/>
      <point x="517" y="810"/>
      <point x="560" y="724"/>
      <point x="573" y="690" type="qcurve"/>
    </contour>
    <contour>
      <point x="508" y="444"/>
      <point x="265" y="232"/>
      <point x="95" y="153" type="qcurve"/>
      <point x="86" y="169"/>
      <point x="59" y="202"/>
      <point x="44" y="216" type="qcurve"/>
      <point x="190" y="279"/>
      <point x="437" y="471"/>
      <point x="514" y="588" type="qcurve"/>
      <point x="59" y="588" type="line"/>
      <point x="59" y="662" type="line"/>
      <point x="941" y="662" type="line"/>
      <point x="941" y="588" type="line"/>
      <point x="610" y="588" type="line"/>
    </contour>
  </outline>
</glyph>
<glyph name="uniE001" format="2">
  <advance width="1000"/>
  <unicode hex="E001"/>
  <outline>
    <contour>
      <point x="876" y="780" type="line"/>
      <point x="931" y="759" type="line"/>
      <point x="866" y="621"/>
      <point x="811" y="548" type="qcurve"/>
      <point x="750" y="577" type="line"/>
      <point x="791" y="630"/>
      <point x="823" y="700" type="qcurve"/>
      <point x="111" y="700" type="line"/>
      <point x="111" y="774" type="line"/>
      <point x="849" y="774" type="line"/>
      <point x="849" y="776" type="line"/>
      <point x="863" y="776" type="line"/>
    </contour>
    <contour>
      <point x="907" y="283"/>
      <point x="960" y="233" type="qcurve"/>
      <point x="899" y="179" type="line"/>
      <point x="848" y="230"/>
      <point x="653" y="373"/>
      <point x="559" y="431" type="qcurve"/>
      <point x="615" y="474" type="line"/>
      <point x="711" y="417"/>
    </contour>
    <contour>
      <point x="544" y="657" type="qcurve"/>
      <point x="610" y="627" type="line"/>
      <point x="574" y="570"/>
      <point x="540" y="528" type="qcurve"/>
      <point x="540" y="-78" type="line"/>
      <point x="459" y="-78" type="line"/>
      <point x="459" y="434" type="line"/>
      <point x="297" y="264"/>
      <point x="95" y="167" type="qcurve"/>
      <point x="86" y="179"/>
      <point x="56" y="216"/>
      <point x="44" y="228" type="qcurve"/>
      <point x="190" y="294"/>
      <point x="468" y="523"/>
    </contour>
  </outline>
</glyph>
<glyph name="uniE002" format="2">
  <advance width="1000"/>
  <unicode hex="E002"/>
  <outline>
    <contour>
      <point x="750" y="520" type="line"/>
      <point x="263" y="520" type="line"/>
      <point x="263" y="678" type="line"/>
      <point x="67" y="678" type="line"/>
      <point x="67" y="753" type="line"/>
      <point x="263" y="753" type="line"/>
      <point x="263" y="840" type="line"/>
      <point x="341" y="840" type="line"/>
      <point x="341" y="753" type="line"/>
      <point x="670" y="753" type="line"/>
      <point x="670" y="840" type="line"/>
      <point x="750" y="840" type="line"/>
      <point x="750" y="753" type="line"/>
      <point x="937" y="753" type="line"/>
      <point x="937" y="678" type="line"/>
      <point x="750" y="678" type="line"/>
    </contour>
    <contour>
      <point x="341" y="590" type="line"/>
      <point x="670" y="590" type="line"/>
      <point x="670" y="678" type="line"/>
      <point x="341" y="678" type="line"/>
    </contour>
    <contour>
      <point x="123" y="447" type="line"/>
      <point x="773" y="447" type="line"/>
      <point x="787" y="448" type="line"/>
      <point x="839" y="419" type="line"/>
      <point x="758" y="236"/>
      <point x="576" y="101" type="qcurve"/>
      <point x="739" y="21"/>
      <point x="965" y="-8" type="qcurve"/>
      <point x="944" y="-30"/>
      <point x="917" y="-74" type="qcurve"/>
      <point x="672" y="-45"/>
      <point x="501" y="56" type="qcurve"/>
      <point x="325" y="-41"/>
      <point x="77" y="-80" type="qcurve"/>
      <point x="71" y="-66"/>
      <point x="48" y="-25"/>
      <point x="36" y="-12" type="qcurve"/>
      <point x="270" y="25"/>
      <point x="431" y="101" type="qcurve"/>
      <point x="288" y="203"/>
      <point x="208" y="362" type="qcurve"/>
      <point x="230" y="371" type="line"/>
      <point x="123" y="371" type="line"/>
    </contour>
    <contour>
      <point x="504" y="143" type="qcurve"/>
      <point x="654" y="230"/>
      <point x="729" y="371" type="qcurve"/>
      <point x="286" y="371" type="line"/>
      <point x="360" y="231"/>
    </contour>
  </outline>
</glyph>
<glyph name="uniE003" format="2">
  <advance width="1000"/>
  <unicode hex="E003"/>
  <outline>
    <contour>
      <point x="389" y="580" type="line"/>
      <point x="312" y="580" type="line"/>
      <point x="312" y="669" type="line"/>
      <point x="65" y="669" type="line"/>
      <point x="65" y="745" type="line"/>
      <point x="312" y="745" type="line"/>
      <point x="312" y="840" type="line"/>
      <point x="389" y="840" type="line"/>
    </contour>
    <contour>
      <point x="676" y="744" type="line"/>
      <point x="953" y="744" type="line"/>
      <point x="953" y="669" type="line"/>
      <point x="676" y="669" type="line"/>
      <point x="676" y="580" type="line"/>
      <point x="599" y="580" type="line"/>
      <point x="599" y="840" type="line"/>
      <point x="676" y="840" type="line"/>
    </contour>
    <contour>
      <point x="123" y="511" type="line"/>
      <point x="773" y="511" type="line"/>
      <point x="787" y="513" type="line"/>
      <point x="839" y="479" type="line"/>
      <point x="758" y="271"/>
      <point x="576" y="126" type="qcurve"/>
      <point x="739" y="33"/>
      <point x="965" y="-1" type="qcurve"/>
      <point x="944" y="-26"/>
      <point x="917" y="-74" type="qcurve"/>
      <point x="672" y="-40"/>
      <point x="501" y="75" type="qcurve"/>
      <point x="325" y="-36"/>
      <point x="77" y="-80" type="qcurve"/>
      <point x="71" y="-64"/>
      <point x="47" y="-18"/>
      <point x="36" y="-5" type="qcurve"/>
      <point x="270" y="37"/>
      <point x="431" y="126" type="qcurve"/>
      <point x="288" y="242"/>
      <point x="208" y="424" type="qcurve"/>
      <point x="230" y="434" type="line"/>
      <point x="123" y="434" type="line"/>
    </contour>
    <contour>
      <point x="504" y="174" type="qcurve"/>
      <point x="654" y="273"/>
      <point x="729" y="434" type="qcurve"/>
      <point x="286" y="434" type="line"/>
      <point x="360" y="274"/>
    </contour>
  </outline>
</glyph>
<glyph name="uniE004" format="2">
  <advance width="1000"/>
  <unicode hex="E004"/>
  <outline>
    <contour>
      <point x="880" y="-97" type="line"/>
      <point x="859" y="-62"/>
      <point x="824" y="-20" type="qcurve"/>
      <point x="323" y="-47"/>
      <point x="60" y="-58" type="qcurve"/>
      <point x="50" y="14" type="line"/>
      <point x="188" y="22"/>
      <point x="452" y="28" type="qcurve"/>
      <point x="452" y="208" type="line"/>
      <point x="128" y="208" type="line"/>
      <point x="128" y="521" type="line"/>
      <point x="452" y="521" type="line"/>
      <point x="452" y="657" type="line"/>
      <point x="533" y="657" type="line"/>
      <point x="533" y="521" type="line"/>
      <point x="861" y="521" type="line"/>
      <point x="861" y="208" type="line"/>
      <point x="533" y="208" type="line"/>
      <point x="533" y="32" type="line"/>
      <point x="776" y="42" type="line"/>
      <point x="725" y="98"/>
      <point x="683" y="129" type="qcurve"/>
      <point x="753" y="152" type="line"/>
      <point x="814" y="97"/>
      <point x="928" y="-25"/>
      <point x="954" y="-71" type="qcurve"/>
    </contour>
    <contour>
      <point x="204" y="280" type="line"/>
      <point x="452" y="280" type="line"/>
      <point x="452" y="451" type="line"/>
      <point x="204" y="451" type="line"/>
    </contour>
    <contour>
      <point x="533" y="280" type="line"/>
      <point x="780" y="280" type="line"/>
      <point x="780" y="451" type="line"/>
      <point x="533" y="451" type="line"/>
    </contour>
    <contour>
      <point x="822" y="581" type="qcurve"/>
      <point x="761" y="609" type="line"/>
      <point x="796" y="648"/>
      <point x="826" y="711" type="qcurve"/>
      <point x="77" y="711" type="line"/>
      <point x="77" y="788" type="line"/>
      <point x="860" y="788" type="line"/>
      <point x="878" y="800" type="line"/>
      <point x="933" y="780" type="line"/>
      <point x="870" y="649"/>
    </contour>
  </outline>
</glyph>
<glyph name="u200A2" format="2">
  <advance width="1000" height="1000"/>
  <unicode hex="200A2"/>
  <note>
u200A2
</note>
  <outline>
    <contour>
      <point x="679" y="369"/>
      <point x="752" y="175"/>
      <point x="857" y="21"/>
      <point x="931" y="-21" type="qcurve"/>
      <point x="916" y="-34"/>
      <point x="884" y="-69"/>
      <point x="875" y="-84" type="qcurve"/>
      <point x="789" y="-27"/>
      <point x="677" y="149"/>
      <point x="608" y="356"/>
      <point x="580" y="511" type="qcurve"/>
      <point x="481" y="496" type="line"/>
      <point x="481" y="-80" type="line"/>
      <point x="407" y="-80" type="line"/>
      <point x="407" y="485" type="line"/>
      <point x="269" y="470" type="line"/>
      <point x="268" y="314"/>
      <point x="207" y="26"/>
      <point x="117" y="-84" type="qcurve"/>
      <point x="107" y="-70"/>
      <point x="70" y="-43"/>
      <point x="54" y="-36" type="qcurve"/>
      <point x="139" y="66"/>
      <point x="195" y="327"/>
      <point x="195" y="479" type="qcurve" smooth="yes"/>
      <point x="195" y="733" type="line"/>
      <point x="607" y="788"/>
      <point x="763" y="842" type="qcurve"/>
      <point x="807" y="780" type="line"/>
      <point x="618" y="720"/>
      <point x="269" y="667" type="qcurve"/>
      <point x="269" y="536" type="line"/>
      <point x="426" y="555"/>
      <point x="708" y="605"/>
      <point x="816" y="639" type="qcurve"/>
      <point x="857" y="580" type="line"/>
      <point x="752" y="547"/>
      <point x="651" y="524" type="qcurve"/>
    </contour>
    <contour>
      <point x="694" y="271" type="qcurve"/>
      <point x="671" y="331" type="line"/>
      <point x="759" y="363"/>
      <point x="872" y="439" type="qcurve"/>
      <point x="914" y="376" type="line"/>
      <point x="791" y="304"/>
    </contour>
  </outline>
</glyph>
<glyph name="u200D3" format="2">
  <advance width="1000"/>
  <unicode hex="200D3"/>
  <outline>
    <contour>
      <point x="203" y="414" type="curve"/>
      <point x="216" y="422"/>
      <point x="245" y="427"/>
      <point x="302" y="427" type="curve" smooth="yes"/>
      <point x="404" y="427" type="line"/>
      <point x="350" y="319"/>
      <point x="233" y="196"/>
      <point x="55" y="120" type="curve"/>
      <point x="76" y="109"/>
      <point x="105" y="87"/>
      <point x="119" y="70" type="curve"/>
      <point x="300" y="157"/>
      <point x="429" y="301"/>
      <point x="490" y="427" type="curve"/>
      <point x="629" y="427" type="line"/>
      <point x="556" y="228"/>
      <point x="397" y="57"/>
      <point x="177" y="-39" type="curve"/>
      <point x="199" y="-51"/>
      <point x="230" y="-73"/>
      <point x="245" y="-88" type="curve"/>
      <point x="464" y="19"/>
      <point x="630" y="208"/>
      <point x="711" y="427" type="curve"/>
      <point x="836" y="427" type="line"/>
      <point x="812" y="146"/>
      <point x="786" y="34"/>
      <point x="750" y="7" type="curve" smooth="yes"/>
      <point x="738" y="-5"/>
      <point x="726" y="-7"/>
      <point x="706" y="-7" type="curve" smooth="yes"/>
      <point x="681" y="-7"/>
      <point x="624" y="-7"/>
      <point x="571" y="-3" type="curve"/>
      <point x="586" y="-21"/>
      <point x="597" y="-51"/>
      <point x="598" y="-71" type="curve"/>
      <point x="650" y="-73"/>
      <point x="702" y="-74"/>
      <point x="732" y="-71" type="curve" smooth="yes"/>
      <point x="768" y="-68"/>
      <point x="793" y="-60"/>
      <point x="818" y="-37" type="curve" smooth="yes"/>
      <point x="862" y="3"/>
      <point x="890" y="125"/>
      <point x="916" y="460" type="curve" smooth="yes"/>
      <point x="918" y="471"/>
      <point x="919" y="500"/>
      <point x="919" y="500" type="curve"/>
      <point x="380" y="500" type="line"/>
      <point x="505" y="571"/>
      <point x="659" y="668"/>
      <point x="768" y="757" type="curve"/>
      <point x="698" y="800" type="line"/>
      <point x="677" y="793" type="line"/>
      <point x="128" y="793" type="line"/>
      <point x="128" y="717" type="line"/>
      <point x="590" y="717" type="line"/>
      <point x="493" y="642"/>
      <point x="354" y="556"/>
      <point x="299" y="529" type="curve" smooth="yes"/>
      <point x="238" y="499"/>
      <point x="199" y="486"/>
      <point x="164" y="482" type="curve"/>
      <point x="177" y="464"/>
      <point x="198" y="431"/>
    </contour>
  </outline>
</glyph>
<glyph name="u20A7A" format="2">
  <advance width="1000"/>
  <unicode hex="20A7A"/>
  <outline>
    <contour>
      <point x="938" y="327" type="line"/>
      <point x="203" y="327" type="line"/>
      <point x="203" y="261" type="line" smooth="yes"/>
      <point x="203" y="166"/>
      <point x="155" y="-15"/>
      <point x="93" y="-81" type="qcurve"/>
      <point x="84" y="-70"/>
      <point x="49" y="-39"/>
      <point x="37" y="-32" type="qcurve"/>
      <point x="93" y="26"/>
      <point x="132" y="178"/>
      <point x="132" y="262" type="qcurve" smooth="yes"/>
      <point x="132" y="395" type="line"/>
      <point x="938" y="395" type="line"/>
    </contour>
    <contour>
      <point x="657" y="749" type="qcurve"/>
      <point x="947" y="749" type="line"/>
      <point x="947" y="690" type="line"/>
      <point x="875" y="690" type="line"/>
      <point x="843" y="602"/>
      <point x="767" y="534" type="qcurve"/>
      <point x="853" y="484"/>
      <point x="966" y="463" type="qcurve"/>
      <point x="955" y="453"/>
      <point x="932" y="420"/>
      <point x="925" y="406" type="qcurve"/>
      <point x="805" y="433"/>
      <point x="715" y="494" type="qcurve"/>
      <point x="631" y="439"/>
      <point x="515" y="410" type="qcurve"/>
      <point x="510" y="421"/>
      <point x="488" y="453"/>
      <point x="479" y="463" type="qcurve"/>
      <point x="587" y="487"/>
      <point x="663" y="535" type="qcurve"/>
      <point x="614" y="578"/>
      <point x="579" y="636" type="qcurve"/>
      <point x="549" y="600"/>
      <point x="516" y="573" type="qcurve"/>
      <point x="499" y="591"/>
      <point x="479" y="604" type="qcurve"/>
      <point x="328" y="604" type="line"/>
      <point x="328" y="586" type="line"/>
      <point x="373" y="567"/>
      <point x="469" y="519"/>
      <point x="497" y="501" type="qcurve"/>
      <point x="459" y="457" type="line"/>
      <point x="415" y="487"/>
      <point x="328" y="529" type="qcurve"/>
      <point x="328" y="417" type="line"/>
      <point x="259" y="417" type="line"/>
      <point x="259" y="548" type="line"/>
      <point x="221" y="507"/>
      <point x="129" y="438"/>
      <point x="85" y="417" type="qcurve"/>
      <point x="78" y="429"/>
      <point x="52" y="458"/>
      <point x="41" y="467" type="qcurve"/>
      <point x="93" y="487"/>
      <point x="199" y="562"/>
      <point x="235" y="604" type="qcurve"/>
      <point x="65" y="604" type="line"/>
      <point x="65" y="660" type="line"/>
      <point x="259" y="660" type="line"/>
      <point x="259" y="721" type="line"/>
      <point x="99" y="721" type="line"/>
      <point x="99" y="774" type="line"/>
      <point x="259" y="774" type="line"/>
      <point x="259" y="840" type="line"/>
      <point x="328" y="840" type="line"/>
      <point x="328" y="774" type="line"/>
      <point x="478" y="774" type="line"/>
      <point x="478" y="721" type="line"/>
      <point x="328" y="721" type="line"/>
      <point x="328" y="660" type="line"/>
      <point x="491" y="660" type="line"/>
      <point x="491" y="636" type="line"/>
      <point x="535" y="678"/>
      <point x="607" y="788"/>
      <point x="625" y="840" type="qcurve"/>
      <point x="693" y="822" type="line"/>
      <point x="677" y="783"/>
    </contour>
    <contour>
      <point x="713" y="571" type="qcurve"/>
      <point x="773" y="622"/>
      <point x="800" y="690" type="qcurve"/>
      <point x="620" y="690" type="line"/>
      <point x="617" y="684" type="line"/>
      <point x="651" y="622"/>
    </contour>
  </outline>
</glyph>
<glyph name="u20B1B" format="2">
  <advance width="1000"/>
  <unicode hex="20B1B"/>
  <outline>
    <contour>
      <point x="126" y="418" type="curve"/>
      <point x="264" y="529"/>
      <point x="321" y="652"/>
      <point x="333" y="834" type="curve"/>
      <point x="255" y="836" type="line"/>
      <point x="250" y="664"/>
      <point x="185" y="561"/>
      <point x="70" y="471" type="curve"/>
      <point x="91" y="459"/>
      <point x="114" y="436"/>
    </contour>
    <contour>
      <point x="282" y="788" type="line"/>
      <point x="282" y="717" type="line"/>
      <point x="742" y="717" type="line"/>
      <point x="732" y="598"/>
      <point x="721" y="549"/>
      <point x="704" y="530" type="curve" smooth="yes"/>
      <point x="696" y="520"/>
      <point x="686" y="519"/>
      <point x="669" y="519" type="curve" smooth="yes"/>
      <point x="652" y="519"/>
      <point x="609" y="519"/>
      <point x="559" y="524" type="curve"/>
      <point x="571" y="505"/>
      <point x="578" y="474"/>
      <point x="580" y="454" type="curve"/>
      <point x="629" y="452"/>
      <point x="678" y="451"/>
      <point x="703" y="454" type="curve" smooth="yes"/>
      <point x="733" y="457"/>
      <point x="752" y="462"/>
      <point x="768" y="483" type="curve" smooth="yes"/>
      <point x="795" y="514"/>
      <point x="805" y="586"/>
      <point x="817" y="757" type="curve" smooth="yes"/>
      <point x="818" y="766"/>
      <point x="818" y="788"/>
      <point x="818" y="788" type="curve"/>
    </contour>
    <contour>
      <point x="742" y="408" type="line"/>
      <point x="154" y="408" type="line"/>
      <point x="154" y="337" type="line"/>
      <point x="252" y="337" type="line"/>
      <point x="226" y="328" type="line"/>
      <point x="274" y="227"/>
      <point x="340" y="147"/>
      <point x="425" y="85" type="curve"/>
      <point x="314" y="34"/>
      <point x="183" y="5"/>
      <point x="40" y="-12" type="curve"/>
      <point x="54" y="-29"/>
      <point x="72" y="-62"/>
      <point x="79" y="-82" type="curve"/>
      <point x="232" y="-60"/>
      <point x="375" y="-23"/>
      <point x="496" y="40" type="curve"/>
      <point x="608" y="-22"/>
      <point x="747" y="-61"/>
      <point x="915" y="-79" type="curve"/>
      <point x="924" y="-59"/>
      <point x="943" y="-27"/>
      <point x="959" y="-10" type="curve"/>
      <point x="806" y="4"/>
      <point x="675" y="35"/>
      <point x="569" y="84" type="curve"/>
      <point x="673" y="155"/>
      <point x="755" y="250"/>
      <point x="805" y="381" type="curve"/>
      <point x="755" y="411" type="line"/>
    </contour>
    <contour>
      <point x="300" y="337" type="curve"/>
      <point x="700" y="337" type="line"/>
      <point x="654" y="245"/>
      <point x="584" y="176"/>
      <point x="497" y="123" type="curve"/>
      <point x="410" y="177"/>
      <point x="344" y="248"/>
    </contour>
  </outline>
</glyph>
<glyph name="u20B24" format="2">
  <advance width="1000"/>
  <unicode hex="20B24"/>
  <outline>
    <contour>
      <point x="305" y="710" type="curve"/>
      <point x="708" y="710" type="line"/>
      <point x="650" y="655"/>
      <point x="580" y="605"/>
      <point x="500" y="565" type="curve"/>
      <point x="418" y="606"/>
      <point x="364" y="644"/>
    </contour>
    <contour>
      <point x="770" y="780" type="line"/>
      <point x="112" y="780" type="line"/>
      <point x="112" y="710" type="line"/>
      <point x="232" y="710" type="line"/>
      <point x="216" y="702" type="line"/>
      <point x="276" y="626"/>
      <point x="338" y="578"/>
      <point x="417" y="530" type="curve"/>
      <point x="303" y="484"/>
      <point x="177" y="448"/>
      <point x="48" y="427" type="curve"/>
      <point x="61" y="410"/>
      <point x="75" y="380"/>
      <point x="80" y="359" type="curve"/>
      <point x="226" y="385"/>
      <point x="370" y="428"/>
      <point x="498" y="488" type="curve"/>
      <point x="617" y="427"/>
      <point x="758" y="379"/>
      <point x="909" y="354" type="curve"/>
      <point x="917" y="374"/>
      <point x="937" y="405"/>
      <point x="952" y="422" type="curve"/>
      <point x="819" y="444"/>
      <point x="691" y="483"/>
      <point x="582" y="529" type="curve"/>
      <point x="679" y="586"/>
      <point x="771" y="661"/>
      <point x="832" y="751" type="curve"/>
      <point x="784" y="784" type="line"/>
    </contour>
    <contour>
      <point x="540" y="432" type="line"/>
      <point x="465" y="432" type="line"/>
      <point x="465" y="322" type="line"/>
      <point x="163" y="322" type="line"/>
      <point x="163" y="253" type="line"/>
      <point x="465" y="253" type="line"/>
      <point x="465" y="156" type="line"/>
      <point x="71" y="156" type="line"/>
      <point x="71" y="85" type="line"/>
      <point x="465" y="85" type="line"/>
      <point x="465" y="-80" type="line"/>
      <point x="540" y="-80" type="line"/>
      <point x="540" y="85" type="line"/>
      <point x="936" y="85" type="line"/>
      <point x="936" y="156" type="line"/>
      <point x="540" y="156" type="line"/>
      <point x="540" y="253" type="line"/>
      <point x="860" y="253" type="line"/>
      <point x="860" y="322" type="line"/>
      <point x="540" y="322" type="line"/>
    </contour>
  </outline>
</glyph>
<glyph name="u20B36" format="2">
  <advance width="1000"/>
  <unicode hex="20B36"/>
  <outline>
    <contour>
      <point x="928" y="421" type="line"/>
      <point x="78" y="421" type="line"/>
      <point x="78" y="229" type="line"/>
      <point x="149" y="229" type="line"/>
      <point x="149" y="353" type="line"/>
      <point x="855" y="353" type="line"/>
      <point x="855" y="229" type="line"/>
      <point x="928" y="229" type="line"/>
    </contour>
    <contour>
      <point x="716" y="680" type="line"/>
      <point x="52" y="680" type="line"/>
      <point x="52" y="615" type="line"/>
      <point x="716" y="615" type="line"/>
      <point x="716" y="543" type="line"/>
      <point x="173" y="543" type="line"/>
      <point x="173" y="482" type="line"/>
      <point x="791" y="482" type="line"/>
      <point x="791" y="615" type="line"/>
      <point x="948" y="615" type="line"/>
      <point x="948" y="680" type="line"/>
      <point x="791" y="680" type="line"/>
      <point x="791" y="808" type="line"/>
      <point x="179" y="808" type="line"/>
      <point x="179" y="746" type="line"/>
      <point x="716" y="746" type="line"/>
    </contour>
    <contour>
      <point x="319" y="227" type="curve"/>
      <point x="697" y="227" type="line"/>
      <point x="649" y="173"/>
      <point x="585" y="128"/>
      <point x="509" y="93" type="curve"/>
      <point x="431" y="129"/>
      <point x="366" y="174"/>
    </contour>
    <contour>
      <point x="749" y="290" type="line"/>
      <point x="199" y="290" type="line"/>
      <point x="199" y="227" type="line"/>
      <point x="279" y="227" type="line"/>
      <point x="249" y="211" type="line"/>
      <point x="295" y="152"/>
      <point x="357" y="102"/>
      <point x="422" y="60" type="curve"/>
      <point x="306" y="23"/>
      <point x="176" y="-1"/>
      <point x="48" y="-11" type="curve"/>
      <point x="61" y="-29"/>
      <point x="74" y="-61"/>
      <point x="78" y="-79" type="curve"/>
      <point x="226" y="-63"/>
      <point x="376" y="-32"/>
      <point x="507" y="21" type="curve"/>
      <point x="627" y="-29"/>
      <point x="767" y="-62"/>
      <point x="915" y="-78" type="curve"/>
      <point x="924" y="-59"/>
      <point x="944" y="-28"/>
      <point x="960" y="-11" type="curve"/>
      <point x="830" y="1"/>
      <point x="705" y="26"/>
      <point x="596" y="61" type="curve"/>
      <point x="680" y="113"/>
      <point x="756" y="179"/>
      <point x="806" y="265" type="curve"/>
      <point x="763" y="293" type="line"/>
    </contour>
  </outline>
</glyph>
<glyph name="u20BD1" format="2">
  <advance width="1000"/>
  <unicode hex="20BD1"/>
  <outline>
    <contour>
      <point x="847" y="779" type="curve"/>
      <point x="782" y="834" type="line"/>
      <point x="646" y="778"/>
      <point x="358" y="753"/>
      <point x="124" y="746" type="curve"/>
      <point x="131" y="729"/>
      <point x="140" y="700"/>
      <point x="142" y="682" type="curve"/>
      <point x="243" y="685"/>
      <point x="353" y="690"/>
      <point x="460" y="701" type="curve"/>
      <point x="460" y="544" type="line"/>
      <point x="53" y="544" type="line"/>
      <point x="53" y="474" type="line"/>
      <point x="460" y="474" type="line"/>
      <point x="460" y="314" type="line"/>
      <point x="173" y="314" type="line"/>
      <point x="173" y="-86" type="line"/>
      <point x="250" y="-86" type="line"/>
      <point x="250" y="-38" type="line"/>
      <point x="759" y="-38" type="line"/>
      <point x="759" y="-76" type="line"/>
      <point x="838" y="-76" type="line"/>
      <point x="838" y="314" type="line"/>
      <point x="537" y="314" type="line"/>
      <point x="537" y="474" type="line"/>
      <point x="950" y="474" type="line"/>
      <point x="950" y="544" type="line"/>
      <point x="537" y="544" type="line"/>
      <point x="537" y="710" type="line"/>
      <point x="656" y="725"/>
      <point x="766" y="747"/>
    </contour>
    <contour>
      <point x="759" y="31" type="line"/>
      <point x="250" y="31" type="line"/>
      <point x="250" y="245" type="line"/>
      <point x="759" y="245" type="line"/>
    </contour>
  </outline>
</glyph>
<glyph name="u21569" format="2">
  <advance width="1000"/>
  <unicode hex="21569"/>
  <outline>
    <contour>
      <point x="380" y="396" type="curve"/>
      <point x="319" y="418" type="line"/>
      <point x="255" y="356"/>
      <point x="156" y="300"/>
      <point x="57" y="269" type="curve"/>
      <point x="97" y="223" type="line"/>
      <point x="209" y="260"/>
      <point x="309" y="326"/>
    </contour>
    <contour>
      <point x="625" y="423" type="curve"/>
      <point x="584" y="382" type="line"/>
      <point x="683" y="339"/>
      <point x="809" y="278"/>
      <point x="871" y="233" type="curve"/>
      <point x="914" y="279" type="line"/>
      <point x="850" y="321"/>
      <point x="722" y="381"/>
    </contour>
    <contour>
      <point x="483" y="326" type="curve"/>
      <point x="412" y="345" type="line"/>
      <point x="351" y="254"/>
      <point x="231" y="182"/>
      <point x="107" y="137" type="curve"/>
      <point x="124" y="125"/>
      <point x="150" y="101"/>
      <point x="161" y="89" type="curve"/>
      <point x="211" y="107"/>
      <point x="261" y="135"/>
      <point x="308" y="165" type="curve"/>
      <point x="343" y="124"/>
      <point x="385" y="89"/>
      <point x="434" y="61" type="curve"/>
      <point x="333" y="22"/>
      <point x="206" y="-5"/>
      <point x="53" y="-22" type="curve"/>
      <point x="68" y="-37"/>
      <point x="84" y="-61"/>
      <point x="91" y="-77" type="curve"/>
      <point x="259" y="-56"/>
      <point x="397" y="-24"/>
      <point x="506" y="21" type="curve"/>
      <point x="618" y="-28"/>
      <point x="758" y="-59"/>
      <point x="916" y="-74" type="curve"/>
      <point x="925" y="-55"/>
      <point x="943" y="-28"/>
      <point x="958" y="-12" type="curve"/>
      <point x="815" y="-3"/>
      <point x="686" y="20"/>
      <point x="580" y="59" type="curve"/>
      <point x="667" y="107"/>
      <point x="729" y="165"/>
      <point x="766" y="233" type="curve"/>
      <point x="714" y="256" type="line"/>
      <point x="701" y="253" type="line"/>
      <point x="423" y="253" type="line"/>
      <point x="445" y="278"/>
      <point x="466" y="300"/>
    </contour>
    <contour>
      <point x="364" y="197" type="curve"/>
      <point x="655" y="197" type="line"/>
      <point x="621" y="158"/>
      <point x="571" y="122"/>
      <point x="506" y="91" type="curve"/>
      <point x="447" y="120"/>
      <point x="399" y="155"/>
    </contour>
    <contour>
      <point x="208" y="490" type="line"/>
      <point x="208" y="717" type="line"/>
      <point x="782" y="717" type="line"/>
      <point x="782" y="490" type="line"/>
    </contour>
    <contour>
      <point x="139" y="434" type="line"/>
      <point x="854" y="434" type="line"/>
      <point x="854" y="773" type="line"/>
      <point x="489" y="773" type="line"/>
      <point x="506" y="792"/>
      <point x="523" y="814"/>
      <point x="538" y="834" type="curve"/>
      <point x="454" y="843" type="line"/>
      <point x="444" y="823"/>
      <point x="428" y="797"/>
      <point x="411" y="773" type="curve"/>
      <point x="139" y="773" type="line"/>
    </contour>
    <contour>
      <point x="695" y="698" type="curve"/>
      <point x="638" y="727" type="line"/>
      <point x="607" y="693"/>
      <point x="568" y="662"/>
      <point x="519" y="632" type="curve"/>
      <point x="454" y="660"/>
      <point x="387" y="684"/>
      <point x="326" y="704" type="curve"/>
      <point x="286" y="667" type="line"/>
      <point x="340" y="648"/>
      <point x="400" y="626"/>
      <point x="457" y="601" type="curve"/>
      <point x="398" y="572"/>
      <point x="331" y="547"/>
      <point x="259" y="529" type="curve"/>
      <point x="272" y="518"/>
      <point x="290" y="497"/>
      <point x="298" y="485" type="curve"/>
      <point x="379" y="507"/>
      <point x="455" y="537"/>
      <point x="524" y="572" type="curve"/>
      <point x="587" y="542"/>
      <point x="644" y="512"/>
      <point x="684" y="487" type="curve"/>
      <point x="729" y="530" type="line"/>
      <point x="691" y="553"/>
      <point x="639" y="579"/>
      <point x="583" y="605" type="curve"/>
      <point x="627" y="633"/>
      <point x="666" y="663"/>
    </contour>
  </outline>
</glyph>
<glyph name="u22016" format="2">
  <advance width="1000"/>
  <unicode hex="22016"/>
  <outline>
    <contour>
      <point x="107" y="371" type="curve"/>
      <point x="360" y="426"/>
      <point x="650" y="524"/>
      <point x="842" y="755" type="curve"/>
      <point x="790" y="791" type="line"/>
      <point x="776" y="787" type="line"/>
      <point x="130" y="787" type="line"/>
      <point x="130" y="715" type="line"/>
      <point x="704" y="715" type="line"/>
      <point x="524" y="558"/>
      <point x="278" y="481"/>
      <point x="56" y="436" type="curve"/>
      <point x="74" y="419"/>
      <point x="96" y="392"/>
    </contour>
    <contour>
      <point x="844" y="335" type="line"/>
      <point x="150" y="335" type="line"/>
      <point x="150" y="266" type="line"/>
      <point x="459" y="266" type="line"/>
      <point x="459" y="23" type="line"/>
      <point x="73" y="23" type="line"/>
      <point x="73" y="-49" type="line"/>
      <point x="925" y="-49" type="line"/>
      <point x="925" y="23" type="line"/>
      <point x="534" y="23" type="line"/>
      <point x="534" y="266" type="line"/>
      <point x="844" y="266" type="line"/>
    </contour>
    <contour>
      <point x="531" y="573" type="curve"/>
      <point x="479" y="521" type="line"/>
      <point x="630" y="473"/>
      <point x="786" y="409"/>
      <point x="887" y="357" type="curve"/>
      <point x="944" y="417" type="line"/>
      <point x="840" y="469"/>
      <point x="678" y="529"/>
    </contour>
  </outline>
</glyph>
<glyph name="u221C7" format="2">
  <advance width="1000"/>
  <unicode hex="221C7"/>
  <outline>
    <contour>
      <point x="686" y="830" type="qcurve"/>
      <point x="754" y="797" type="line"/>
      <point x="708" y="734"/>
      <point x="600" y="626" type="qcurve"/>
      <point x="733" y="636" type="line"/>
      <point x="766" y="676"/>
      <point x="798" y="717" type="qcurve"/>
      <point x="856" y="676" type="line"/>
      <point x="736" y="540"/>
      <point x="615" y="448" type="qcurve"/>
      <point x="829" y="469" type="line"/>
      <point x="813" y="506"/>
      <point x="786" y="549" type="qcurve"/>
      <point x="843" y="570" type="line"/>
      <point x="876" y="524"/>
      <point x="926" y="417"/>
      <point x="938" y="379" type="qcurve"/>
      <point x="878" y="354" type="line"/>
      <point x="871" y="377"/>
      <point x="855" y="414" type="qcurve"/>
      <point x="650" y="392"/>
      <point x="532" y="374"/>
      <point x="514" y="367" type="qcurve"/>
      <point x="511" y="387"/>
      <point x="494" y="435" type="qcurve"/>
      <point x="521" y="440"/>
      <point x="568" y="484" type="qcurve" smooth="yes"/>
      <point x="608" y="509"/>
      <point x="675" y="572" type="qcurve"/>
      <point x="588" y="564"/>
      <point x="525" y="557"/>
      <point x="513" y="551" type="qcurve"/>
      <point x="498" y="605"/>
      <point x="493" y="618" type="qcurve"/>
      <point x="516" y="619"/>
      <point x="541" y="647" type="qcurve" smooth="yes"/>
      <point x="646" y="763"/>
    </contour>
    <contour>
      <point x="296" y="833" type="qcurve"/>
      <point x="367" y="800" type="line"/>
      <point x="312" y="726"/>
      <point x="194" y="625" type="qcurve"/>
      <point x="331" y="635" type="line"/>
      <point x="376" y="677"/>
      <point x="407" y="717" type="qcurve"/>
      <point x="467" y="675" type="line"/>
      <point x="343" y="544"/>
      <point x="201" y="447" type="qcurve"/>
      <point x="390" y="466" type="line"/>
      <point x="372" y="511"/>
      <point x="353" y="544" type="qcurve"/>
      <point x="410" y="559" type="line"/>
      <point x="436" y="516"/>
      <point x="479" y="412"/>
      <point x="489" y="376" type="qcurve"/>
      <point x="429" y="359" type="line"/>
      <point x="425" y="375"/>
      <point x="413" y="409" type="qcurve"/>
      <point x="231" y="388"/>
      <point x="107" y="372"/>
      <point x="91" y="365" type="qcurve"/>
      <point x="84" y="395"/>
      <point x="70" y="434" type="qcurve"/>
      <point x="98" y="439"/>
      <point x="152" y="481" type="qcurve" smooth="yes"/>
      <point x="199" y="510"/>
      <point x="265" y="570" type="qcurve"/>
      <point x="175" y="561"/>
      <point x="113" y="553"/>
      <point x="101" y="548" type="qcurve"/>
      <point x="93" y="579"/>
      <point x="79" y="615" type="qcurve"/>
      <point x="99" y="619"/>
      <point x="129" y="645" type="qcurve" smooth="yes"/>
      <point x="149" y="662"/>
      <point x="249" y="766"/>
    </contour>
    <contour>
      <point x="209" y="190" type="line"/>
      <point x="376" y="190" type="line"/>
      <point x="376" y="345" type="line"/>
      <point x="446" y="345" type="line"/>
      <point x="446" y="190" type="line" smooth="yes"/>
      <point x="446" y="86"/>
      <point x="329" y="-49"/>
      <point x="168" y="-90" type="qcurve"/>
      <point x="160" y="-75"/>
      <point x="136" y="-40"/>
      <point x="123" y="-28" type="qcurve"/>
      <point x="235" y="-6"/>
      <point x="348" y="69"/>
      <point x="367" y="123" type="qcurve"/>
      <point x="140" y="123" type="line"/>
      <point x="140" y="342" type="line"/>
      <point x="209" y="342" type="line"/>
    </contour>
    <contour>
      <point x="864" y="84" type="line"/>
      <point x="794" y="84" type="line"/>
      <point x="794" y="126" type="line"/>
      <point x="639" y="126" type="line"/>
      <point x="639" y="-82" type="line"/>
      <point x="566" y="-82" type="line"/>
      <point x="566" y="346" type="line"/>
      <point x="639" y="346" type="line"/>
      <point x="639" y="194" type="line"/>
      <point x="794" y="194" type="line"/>
      <point x="794" y="333" type="line"/>
      <point x="864" y="333" type="line"/>
    </contour>
  </outline>
</glyph>
<glyph name="u226A9" format="2">
  <advance width="1000"/>
  <unicode hex="226A9"/>
  <outline>
    <contour>
      <point x="377" y="46" type="curve" smooth="yes"/>
      <point x="377" y="193" type="line"/>
      <point x="305" y="193" type="line"/>
      <point x="305" y="44" type="line" smooth="yes"/>
      <point x="305" y="-43"/>
      <point x="330" y="-65"/>
      <point x="433" y="-65" type="curve" smooth="yes"/>
      <point x="454" y="-65"/>
      <point x="603" y="-65"/>
      <point x="625" y="-65" type="curve" smooth="yes"/>
      <point x="705" y="-65"/>
      <point x="727" y="-35"/>
      <point x="736" y="93" type="curve"/>
      <point x="715" y="98"/>
      <point x="686" y="110"/>
      <point x="670" y="122" type="curve"/>
      <point x="666" y="24"/>
      <point x="659" y="11"/>
      <point x="618" y="11" type="curve" smooth="yes"/>
      <point x="586" y="11"/>
      <point x="462" y="11"/>
      <point x="438" y="11" type="curve" smooth="yes"/>
      <point x="386" y="11"/>
      <point x="377" y="17"/>
    </contour>
    <contour>
      <point x="781" y="195" type="curve"/>
      <point x="724" y="150" type="line"/>
      <point x="793" y="95"/>
      <point x="866" y="8"/>
      <point x="897" y="-55" type="curve"/>
      <point x="958" y="-3" type="line"/>
      <point x="926" y="61"/>
      <point x="850" y="142"/>
    </contour>
    <contour>
      <point x="244" y="163" type="curve"/>
      <point x="179" y="191" type="line"/>
      <point x="158" y="109"/>
      <point x="113" y="35"/>
      <point x="40" y="-3" type="curve"/>
      <point x="98" y="-57" type="line"/>
      <point x="180" y="-12"/>
      <point x="220" y="70"/>
    </contour>
    <contour>
      <point x="747" y="430" type="line"/>
      <point x="53" y="430" type="line"/>
      <point x="53" y="369" type="line"/>
      <point x="747" y="369" type="line"/>
      <point x="747" y="307" type="line"/>
      <point x="143" y="307" type="line"/>
      <point x="143" y="246" type="line"/>
      <point x="426" y="246" type="line"/>
      <point x="397" y="218" type="line"/>
      <point x="454" y="184"/>
      <point x="520" y="130"/>
      <point x="553" y="88" type="curve"/>
      <point x="605" y="141" type="line"/>
      <point x="578" y="177"/>
      <point x="529" y="217"/>
      <point x="481" y="246" type="curve"/>
      <point x="821" y="246" type="line"/>
      <point x="821" y="369" type="line"/>
      <point x="950" y="369" type="line"/>
      <point x="950" y="430" type="line"/>
      <point x="821" y="430" type="line"/>
      <point x="821" y="552" type="line"/>
      <point x="149" y="552" type="line"/>
      <point x="149" y="492" type="line"/>
      <point x="747" y="492" type="line"/>
    </contour>
    <contour>
      <point x="829" y="717" type="curve"/>
      <point x="769" y="743" type="line"/>
      <point x="739" y="693"/>
      <point x="693" y="642"/>
      <point x="648" y="604" type="curve"/>
      <point x="664" y="592"/>
      <point x="690" y="570"/>
      <point x="702" y="556" type="curve"/>
      <point x="745" y="598"/>
      <point x="796" y="662"/>
    </contour>
    <contour>
      <point x="246" y="710" type="curve"/>
      <point x="196" y="674" type="line"/>
      <point x="221" y="636"/>
      <point x="248" y="588"/>
      <point x="260" y="556" type="curve"/>
      <point x="313" y="596" type="line"/>
      <point x="299" y="629"/>
      <point x="271" y="676"/>
    </contour>
    <contour>
      <point x="472" y="722" type="curve"/>
      <point x="429" y="688" type="line"/>
      <point x="457" y="649"/>
      <point x="486" y="592"/>
      <point x="500" y="556" type="curve"/>
      <point x="551" y="599" type="line"/>
      <point x="538" y="633"/>
      <point x="508" y="684"/>
      <point x="482" y="723" type="curve"/>
      <point x="636" y="732"/>
      <point x="783" y="751"/>
      <point x="888" y="782" type="curve"/>
      <point x="839" y="842" type="line"/>
      <point x="681" y="796"/>
      <point x="364" y="778"/>
      <point x="115" y="775" type="curve"/>
      <point x="120" y="759"/>
      <point x="127" y="729"/>
      <point x="127" y="710" type="curve"/>
      <point x="235" y="710"/>
      <point x="355" y="713"/>
    </contour>
  </outline>
</glyph>
<glyph name="u22EFB" format="2">
  <advance width="1000"/>
  <unicode hex="22EFB"/>
  <outline>
    <contour>
      <point x="500" y="-83" type="curve"/>
      <point x="494" y="-68"/>
      <point x="473" y="-45"/>
      <point x="452" y="-32" type="curve"/>
      <point x="547" y="23"/>
      <point x="617" y="92"/>
      <point x="668" y="169" type="curve"/>
      <point x="619" y="259"/>
      <point x="581" y="357"/>
      <point x="561" y="444" type="curve"/>
      <point x="546" y="416"/>
      <point x="532" y="397"/>
      <point x="513" y="374" type="curve"/>
      <point x="500" y="388"/>
      <point x="480" y="404"/>
      <point x="459" y="417" type="curve"/>
      <point x="545" y="520"/>
      <point x="588" y="678"/>
      <point x="613" y="840" type="curve"/>
      <point x="686" y="831" type="line"/>
      <point x="673" y="769"/>
      <point x="660" y="707"/>
      <point x="643" y="649" type="curve"/>
      <point x="951" y="649" type="line"/>
      <point x="951" y="583" type="line"/>
      <point x="881" y="583" type="line"/>
      <point x="856" y="420"/>
      <point x="820" y="290"/>
      <point x="753" y="173" type="curve"/>
      <point x="803" y="97"/>
      <point x="875" y="25"/>
      <point x="959" y="-23" type="curve"/>
      <point x="940" y="-36"/>
      <point x="916" y="-62"/>
      <point x="904" y="-79" type="curve"/>
      <point x="828" y="-33"/>
      <point x="756" y="40"/>
      <point x="709" y="107" type="curve"/>
      <point x="658" y="35"/>
      <point x="585" y="-33"/>
    </contour>
    <contour>
      <point x="90" y="-82" type="curve"/>
      <point x="77" y="-68"/>
      <point x="45" y="-43"/>
      <point x="29" y="-34" type="curve"/>
      <point x="93" y="88"/>
      <point x="98" y="261"/>
      <point x="98" y="391" type="curve" smooth="yes"/>
      <point x="98" y="741" type="line"/>
      <point x="238" y="756"/>
      <point x="382" y="783"/>
      <point x="471" y="819" type="curve"/>
      <point x="519" y="756" type="line"/>
      <point x="428" y="721"/>
      <point x="304" y="699"/>
      <point x="172" y="685" type="curve"/>
      <point x="172" y="589" type="line"/>
      <point x="452" y="589" type="line"/>
      <point x="452" y="293" type="line"/>
      <point x="170" y="293" type="line"/>
      <point x="165" y="167"/>
      <point x="147" y="22"/>
    </contour>
    <contour>
      <point x="172" y="361" type="line"/>
      <point x="380" y="361" type="line"/>
      <point x="380" y="521" type="line"/>
      <point x="172" y="521" type="line"/>
      <point x="172" y="391" type="line"/>
    </contour>
    <contour>
      <point x="711" y="241" type="curve"/>
      <point x="759" y="336"/>
      <point x="794" y="460"/>
      <point x="809" y="583" type="curve"/>
      <point x="621" y="583" type="line"/>
      <point x="608" y="547" type="line"/>
      <point x="628" y="453"/>
      <point x="663" y="337"/>
    </contour>
  </outline>
</glyph>
<glyph name="u22F38" format="2">
  <advance width="1000"/>
  <unicode hex="22F38"/>
  <outline>
    <contour>
      <point x="484" y="430" type="line"/>
      <point x="83" y="430" type="line"/>
      <point x="83" y="365" type="line"/>
      <point x="484" y="365" type="line"/>
    </contour>
    <contour>
      <point x="223" y="325" type="curve"/>
      <point x="155" y="325" type="line"/>
      <point x="153" y="156"/>
      <point x="136" y="56"/>
      <point x="44" y="-9" type="curve"/>
      <point x="61" y="-21"/>
      <point x="82" y="-47"/>
      <point x="90" y="-63" type="curve"/>
      <point x="197" y="14"/>
      <point x="220" y="133"/>
    </contour>
    <contour>
      <point x="167" y="746" type="line"/>
      <point x="105" y="746" type="line"/>
      <point x="105" y="494" type="line"/>
      <point x="497" y="494" type="line"/>
      <point x="497" y="745" type="line"/>
      <point x="434" y="745" type="line"/>
      <point x="434" y="556" type="line"/>
      <point x="335" y="556" type="line"/>
      <point x="335" y="840" type="line"/>
      <point x="269" y="840" type="line"/>
      <point x="269" y="556" type="line"/>
      <point x="167" y="556" type="line"/>
    </contour>
    <contour>
      <point x="353" y="12" type="curve"/>
      <point x="367" y="27"/>
      <point x="395" y="46"/>
      <point x="559" y="129" type="curve"/>
      <point x="550" y="142"/>
      <point x="540" y="165"/>
      <point x="535" y="183" type="curve"/>
      <point x="428" y="133" type="line"/>
      <point x="428" y="327" type="line"/>
      <point x="360" y="327" type="line"/>
      <point x="360" y="142" type="line" smooth="yes"/>
      <point x="360" y="103"/>
      <point x="333" y="86"/>
      <point x="316" y="78" type="curve"/>
      <point x="330" y="62"/>
      <point x="348" y="30"/>
    </contour>
    <contour>
      <point x="639" y="551" type="curve"/>
      <point x="651" y="583" type="line"/>
      <point x="820" y="583" type="line"/>
      <point x="806" y="460"/>
      <point x="776" y="340"/>
      <point x="732" y="245" type="curve"/>
      <point x="688" y="341"/>
      <point x="658" y="457"/>
    </contour>
    <contour>
      <point x="711" y="831" type="curve"/>
      <point x="643" y="840" type="line"/>
      <point x="620" y="678"/>
      <point x="581" y="520"/>
      <point x="502" y="417" type="curve"/>
      <point x="521" y="404"/>
      <point x="537" y="386"/>
      <point x="550" y="372" type="curve"/>
      <point x="567" y="395"/>
      <point x="582" y="416"/>
      <point x="595" y="444" type="curve"/>
      <point x="613" y="357"/>
      <point x="643" y="257"/>
      <point x="690" y="169" type="curve"/>
      <point x="643" y="92"/>
      <point x="580" y="24"/>
      <point x="492" y="-31" type="curve"/>
      <point x="511" y="-44"/>
      <point x="533" y="-68"/>
      <point x="538" y="-83" type="curve"/>
      <point x="616" y="-33"/>
      <point x="682" y="33"/>
      <point x="729" y="105" type="curve"/>
      <point x="772" y="38"/>
      <point x="837" y="-33"/>
      <point x="907" y="-79" type="curve"/>
      <point x="918" y="-62"/>
      <point x="942" y="-35"/>
      <point x="959" y="-22" type="curve"/>
      <point x="882" y="26"/>
      <point x="817" y="98"/>
      <point x="770" y="174" type="curve"/>
      <point x="832" y="291"/>
      <point x="865" y="420"/>
      <point x="888" y="583" type="curve"/>
      <point x="951" y="583" type="line"/>
      <point x="951" y="649" type="line"/>
      <point x="671" y="649" type="line"/>
      <point x="687" y="707"/>
      <point x="698" y="769"/>
    </contour>
  </outline>
</glyph>
<glyph name="u23386" format="2">
  <advance width="1000"/>
  <unicode hex="23386"/>
  <outline>
    <contour>
      <point x="233" y="470" type="line"/>
      <point x="233" y="526" type="line"/>
      <point x="768" y="526" type="line"/>
      <point x="768" y="470" type="line"/>
    </contour>
    <contour>
      <point x="838" y="574" type="line"/>
      <point x="165" y="574" type="line"/>
      <point x="165" y="421" type="line"/>
      <point x="838" y="421" type="line"/>
    </contour>
    <contour>
      <point x="234" y="272" type="curve"/>
      <point x="201" y="236" type="line"/>
      <point x="245" y="224"/>
      <point x="297" y="205"/>
      <point x="327" y="191" type="curve"/>
      <point x="375" y="231" type="line"/>
      <point x="345" y="245"/>
      <point x="278" y="262"/>
    </contour>
    <contour>
      <point x="518" y="842" type="curve"/>
      <point x="442" y="828" type="line"/>
      <point x="466" y="781" type="line"/>
      <point x="40" y="781" type="line"/>
      <point x="40" y="726" type="line"/>
      <point x="158" y="726" type="line"/>
      <point x="158" y="703" type="line" smooth="yes"/>
      <point x="158" y="637"/>
      <point x="182" y="615"/>
      <point x="282" y="615" type="curve" smooth="yes"/>
      <point x="316" y="615"/>
      <point x="674" y="615"/>
      <point x="736" y="615" type="curve" smooth="yes"/>
      <point x="803" y="615"/>
      <point x="868" y="615"/>
      <point x="895" y="621" type="curve"/>
      <point x="893" y="634"/>
      <point x="890" y="652"/>
      <point x="887" y="672" type="curve"/>
      <point x="856" y="666"/>
      <point x="774" y="664"/>
      <point x="726" y="664" type="curve" smooth="yes"/>
      <point x="666" y="664"/>
      <point x="338" y="664"/>
      <point x="281" y="664" type="curve" smooth="yes"/>
      <point x="229" y="664"/>
      <point x="221" y="672"/>
      <point x="221" y="702" type="curve" smooth="yes"/>
      <point x="221" y="726" type="line"/>
      <point x="956" y="726" type="line"/>
      <point x="956" y="781" type="line"/>
      <point x="553" y="781" type="line"/>
      <point x="543" y="801"/>
      <point x="530" y="824"/>
    </contour>
    <contour>
      <point x="192" y="328" type="line"/>
      <point x="376" y="328" type="line"/>
      <point x="376" y="143" type="line"/>
      <point x="310" y="134"/>
      <point x="243" y="126"/>
      <point x="187" y="121" type="curve"/>
      <point x="191" y="151"/>
      <point x="192" y="180"/>
      <point x="192" y="206" type="curve" smooth="yes"/>
    </contour>
    <contour>
      <point x="442" y="380" type="line"/>
      <point x="130" y="380" type="line"/>
      <point x="130" y="207" type="line" smooth="yes"/>
      <point x="130" y="130"/>
      <point x="115" y="30"/>
      <point x="35" y="-45" type="curve"/>
      <point x="55" y="-50"/>
      <point x="80" y="-66"/>
      <point x="93" y="-75" type="curve"/>
      <point x="149" y="-24"/>
      <point x="173" y="43"/>
      <point x="184" y="107" type="curve"/>
      <point x="212" y="72" type="line"/>
      <point x="376" y="102" type="line"/>
      <point x="376" y="-8" type="line" smooth="yes"/>
      <point x="376" y="-18"/>
      <point x="372" y="-21"/>
      <point x="357" y="-21" type="curve" smooth="yes"/>
      <point x="342" y="-22"/>
      <point x="283" y="-22"/>
      <point x="227" y="-21" type="curve"/>
      <point x="239" y="-36"/>
      <point x="249" y="-58"/>
      <point x="253" y="-74" type="curve"/>
      <point x="327" y="-74"/>
      <point x="376" y="-73"/>
      <point x="404" y="-65" type="curve" smooth="yes"/>
      <point x="435" y="-55"/>
      <point x="442" y="-39"/>
      <point x="442" y="-8" type="curve" smooth="yes"/>
    </contour>
    <contour>
      <point x="529" y="258" type="line"/>
      <point x="493" y="220" type="line"/>
      <point x="522" y="200"/>
      <point x="555" y="174"/>
      <point x="582" y="151" type="curve"/>
      <point x="576" y="83"/>
      <point x="544" y="11"/>
      <point x="454" y="-48" type="curve"/>
      <point x="470" y="-54"/>
      <point x="498" y="-70"/>
      <point x="511" y="-79" type="curve"/>
      <point x="587" y="-30"/>
      <point x="619" y="35"/>
      <point x="635" y="99" type="curve"/>
      <point x="653" y="83"/>
      <point x="673" y="67"/>
      <point x="684" y="54" type="curve"/>
      <point x="725" y="96" type="line"/>
      <point x="708" y="116"/>
      <point x="675" y="140"/>
      <point x="645" y="166" type="curve"/>
      <point x="647" y="197" type="line"/>
      <point x="647" y="325" type="line"/>
      <point x="762" y="325" type="line"/>
      <point x="762" y="28" type="line" smooth="yes"/>
      <point x="762" y="-33"/>
      <point x="765" y="-47"/>
      <point x="780" y="-59" type="curve" smooth="yes"/>
      <point x="794" y="-71"/>
      <point x="809" y="-74"/>
      <point x="831" y="-74" type="curve" smooth="yes"/>
      <point x="841" y="-74"/>
      <point x="864" y="-74"/>
      <point x="877" y="-74" type="curve" smooth="yes"/>
      <point x="895" y="-74"/>
      <point x="914" y="-72"/>
      <point x="925" y="-67" type="curve" smooth="yes"/>
      <point x="940" y="-61"/>
      <point x="950" y="-52"/>
      <point x="956" y="-36" type="curve" smooth="yes"/>
      <point x="962" y="-22"/>
      <point x="966" y="19"/>
      <point x="966" y="55" type="curve"/>
      <point x="947" y="59"/>
      <point x="922" y="68"/>
      <point x="909" y="78" type="curve"/>
      <point x="909" y="41"/>
      <point x="907" y="13"/>
      <point x="904" y="-1" type="curve" smooth="yes"/>
      <point x="901" y="-12"/>
      <point x="896" y="-18"/>
      <point x="892" y="-21" type="curve" smooth="yes"/>
      <point x="889" y="-24"/>
      <point x="880" y="-25"/>
      <point x="871" y="-25" type="curve" smooth="yes"/>
      <point x="864" y="-25"/>
      <point x="852" y="-25"/>
      <point x="846" y="-25" type="curve" smooth="yes"/>
      <point x="839" y="-25"/>
      <point x="834" y="-24"/>
      <point x="831" y="-21" type="curve" smooth="yes"/>
      <point x="826" y="-17"/>
      <point x="825" y="-1"/>
      <point x="825" y="21" type="curve" smooth="yes"/>
      <point x="825" y="380" type="line"/>
      <point x="523" y="380" type="line"/>
      <point x="523" y="325" type="line"/>
      <point x="585" y="325" type="line"/>
      <point x="585" y="218" type="line"/>
    </contour>
  </outline>
</glyph>
<glyph name="u239BC" format="2">
  <advance width="1000"/>
  <unicode hex="239BC"/>
  <outline>
    <contour>
      <point x="162" y="342"/>
      <point x="202" y="465"/>
      <point x="229" y="588" type="curve"/>
      <point x="161" y="608" type="line"/>
      <point x="135" y="485"/>
      <point x="92" y="369"/>
      <point x="40" y="294" type="curve"/>
      <point x="59" y="279"/>
      <point x="79" y="255"/>
      <point x="91" y="235" type="curve"/>
    </contour>
    <contour>
      <point x="618" y="634" type="curve"/>
      <point x="549" y="620" type="line"/>
      <point x="581" y="453"/>
      <point x="626" y="306"/>
      <point x="692" y="185" type="curve"/>
      <point x="635" y="101"/>
      <point x="566" y="38"/>
      <point x="491" y="-3" type="curve"/>
      <point x="507" y="-18"/>
      <point x="527" y="-47"/>
      <point x="538" y="-66" type="curve"/>
      <point x="611" y="-20"/>
      <point x="678" y="39"/>
      <point x="735" y="115" type="curve"/>
      <point x="788" y="39"/>
      <point x="851" y="-23"/>
      <point x="927" y="-69" type="curve"/>
      <point x="939" y="-50"/>
      <point x="961" y="-20"/>
      <point x="977" y="-6" type="curve"/>
      <point x="898" y="37"/>
      <point x="833" y="102"/>
      <point x="779" y="183" type="curve"/>
      <point x="856" y="313"/>
      <point x="911" y="483"/>
      <point x="935" y="702" type="curve"/>
      <point x="889" y="715" type="line"/>
      <point x="877" y="712" type="line"/>
      <point x="531" y="712" type="line"/>
      <point x="531" y="641" type="line"/>
      <point x="855" y="641" type="line"/>
      <point x="833" y="491"/>
      <point x="791" y="361"/>
      <point x="736" y="257" type="curve"/>
      <point x="681" y="366"/>
      <point x="643" y="493"/>
    </contour>
    <contour>
      <point x="316" y="144" type="curve"/>
      <point x="368" y="191" type="line"/>
      <point x="334" y="248"/>
      <point x="276" y="314"/>
      <point x="225" y="356" type="curve"/>
      <point x="180" y="302" type="line"/>
      <point x="228" y="262"/>
      <point x="281" y="199"/>
    </contour>
    <contour>
      <point x="169" y="445" type="line"/>
      <point x="463" y="445" type="line"/>
      <point x="408" y="254"/>
      <point x="254" y="52"/>
      <point x="61" y="-9" type="curve"/>
      <point x="79" y="-30"/>
      <point x="89" y="-55"/>
      <point x="98" y="-81" type="curve"/>
      <point x="295" y="1"/>
      <point x="470" y="178"/>
      <point x="545" y="490" type="curve"/>
      <point x="499" y="523" type="line"/>
      <point x="487" y="517" type="line"/>
      <point x="346" y="517" type="line"/>
      <point x="346" y="657" type="line"/>
      <point x="503" y="657" type="line"/>
      <point x="503" y="728" type="line"/>
      <point x="346" y="728" type="line"/>
      <point x="346" y="839" type="line"/>
      <point x="274" y="839" type="line"/>
      <point x="274" y="517" type="line"/>
      <point x="169" y="517" type="line"/>
    </contour>
  </outline>
</glyph>
<glyph name="u23D92" format="2">
  <advance width="1000"/>
  <unicode hex="23D92"/>
  <outline>
    <contour>
      <point x="810" y="280" type="line"/>
      <point x="575" y="280" type="line"/>
      <point x="575" y="-58" type="line"/>
      <point x="652" y="-58" type="line"/>
      <point x="652" y="214" type="line"/>
      <point x="810" y="214" type="line"/>
      <point x="810" y="-79" type="line"/>
      <point x="884" y="-79" type="line"/>
      <point x="884" y="827" type="line"/>
      <point x="810" y="827" type="line"/>
      <point x="810" y="579" type="line"/>
      <point x="650" y="579" type="line"/>
      <point x="650" y="810" type="line"/>
      <point x="575" y="810" type="line"/>
      <point x="575" y="513" type="line"/>
      <point x="810" y="513" type="line"/>
      <point x="810" y="431" type="line"/>
      <point x="230" y="431" type="line"/>
      <point x="230" y="513" type="line"/>
      <point x="457" y="513" type="line"/>
      <point x="457" y="810" type="line"/>
      <point x="382" y="810" type="line"/>
      <point x="382" y="579" type="line"/>
      <point x="230" y="579" type="line"/>
      <point x="230" y="826" type="line"/>
      <point x="155" y="826" type="line"/>
      <point x="155" y="471" type="line" smooth="yes"/>
      <point x="155" y="260"/>
      <point x="133" y="97"/>
      <point x="45" y="-40" type="curve"/>
      <point x="66" y="-49"/>
      <point x="97" y="-68"/>
      <point x="114" y="-82" type="curve"/>
      <point x="178" y="7"/>
      <point x="197" y="108"/>
      <point x="214" y="214" type="curve"/>
      <point x="380" y="214" type="line"/>
      <point x="380" y="-58" type="line"/>
      <point x="454" y="-58" type="line"/>
      <point x="454" y="280" type="line"/>
      <point x="223" y="280" type="line"/>
      <point x="227" y="363" type="line"/>
      <point x="810" y="363" type="line"/>
    </contour>
  </outline>
</glyph>
<glyph name="u24C07" format="2">
  <advance width="1000"/>
  <unicode hex="24C07"/>
  <outline>
    <contour>
      <point x="170" y="-84" type="curve"/>
      <point x="158" y="-71"/>
      <point x="127" y="-47"/>
      <point x="110" y="-38" type="curve"/>
      <point x="170" y="40"/>
      <point x="177" y="146"/>
      <point x="177" y="230" type="curve" smooth="yes"/>
      <point x="177" y="338" type="line"/>
      <point x="148" y="315"/>
      <point x="119" y="294"/>
      <point x="89" y="277" type="curve"/>
      <point x="81" y="291"/>
      <point x="58" y="322"/>
      <point x="44" y="337" type="curve"/>
      <point x="119" y="376"/>
      <point x="193" y="434"/>
      <point x="244" y="502" type="curve"/>
      <point x="67" y="502" type="line"/>
      <point x="67" y="572" type="line"/>
      <point x="305" y="572" type="line"/>
      <point x="305" y="668" type="line"/>
      <point x="96" y="668" type="line"/>
      <point x="96" y="738" type="line"/>
      <point x="305" y="738" type="line"/>
      <point x="305" y="836" type="line"/>
      <point x="377" y="836" type="line"/>
      <point x="377" y="738" type="line"/>
      <point x="626" y="738" type="line"/>
      <point x="626" y="836" type="line"/>
      <point x="700" y="836" type="line"/>
      <point x="700" y="738" type="line"/>
      <point x="911" y="738" type="line"/>
      <point x="911" y="668" type="line"/>
      <point x="700" y="668" type="line"/>
      <point x="700" y="572" type="line"/>
      <point x="936" y="572" type="line"/>
      <point x="936" y="502" type="line"/>
      <point x="325" y="502" type="line"/>
      <point x="309" y="475"/>
      <point x="288" y="448"/>
      <point x="265" y="423" type="curve"/>
      <point x="871" y="423" type="line"/>
      <point x="871" y="-3" type="line" smooth="yes"/>
      <point x="871" y="-37"/>
      <point x="864" y="-54"/>
      <point x="842" y="-65" type="curve" smooth="yes"/>
      <point x="819" y="-75"/>
      <point x="786" y="-76"/>
      <point x="739" y="-76" type="curve"/>
      <point x="735" y="-58"/>
      <point x="726" y="-32"/>
      <point x="717" y="-15" type="curve"/>
      <point x="747" y="-16"/>
      <point x="777" y="-16"/>
      <point x="787" y="-16" type="curve" smooth="yes"/>
      <point x="795" y="-16"/>
      <point x="798" y="-12"/>
      <point x="798" y="-3" type="curve" smooth="yes"/>
      <point x="798" y="72" type="line"/>
      <point x="559" y="72" type="line"/>
      <point x="559" y="-56" type="line"/>
      <point x="491" y="-56" type="line"/>
      <point x="491" y="72" type="line"/>
      <point x="236" y="72" type="line"/>
      <point x="226" y="16"/>
      <point x="205" y="-40"/>
    </contour>
    <contour>
      <point x="245" y="129" type="curve"/>
      <point x="491" y="129" type="line"/>
      <point x="491" y="217" type="line"/>
      <point x="250" y="217" type="line"/>
      <point x="250" y="189"/>
      <point x="248" y="160"/>
    </contour>
    <contour>
      <point x="250" y="275" type="line"/>
      <point x="491" y="275" type="line"/>
      <point x="491" y="359" type="line"/>
      <point x="250" y="359" type="line"/>
    </contour>
    <contour>
      <point x="559" y="129" type="line"/>
      <point x="798" y="129" type="line"/>
      <point x="798" y="217" type="line"/>
      <point x="559" y="217" type="line"/>
    </contour>
    <contour>
      <point x="559" y="275" type="line"/>
      <point x="798" y="275" type="line"/>
      <point x="798" y="359" type="line"/>
      <point x="559" y="359" type="line"/>
    </contour>
    <contour>
      <point x="377" y="572" type="line"/>
      <point x="626" y="572" type="line"/>
      <point x="626" y="668" type="line"/>
      <point x="377" y="668" type="line"/>
    </contour>
  </outline>
</glyph>
<glyph name="u26407" format="2">
  <advance width="1000"/>
  <unicode hex="26407"/>
  <outline>
    <contour>
      <point x="129" y="454" type="line"/>
      <point x="129" y="798" type="line"/>
      <point x="871" y="798" type="line"/>
      <point x="871" y="456" type="line"/>
      <point x="797" y="456" type="line"/>
      <point x="797" y="731" type="line"/>
      <point x="201" y="731" type="line"/>
      <point x="201" y="454" type="line"/>
    </contour>
    <contour>
      <point x="110" y="-33" type="curve"/>
      <point x="78" y="28" type="line"/>
      <point x="143" y="54"/>
      <point x="246" y="103"/>
      <point x="339" y="150" type="curve"/>
      <point x="351" y="96" type="line"/>
      <point x="271" y="51"/>
      <point x="178" y="3"/>
    </contour>
    <contour>
      <point x="286" y="-80" type="curve"/>
      <point x="283" y="-61"/>
      <point x="274" y="-35"/>
      <point x="264" y="-17" type="curve"/>
      <point x="314" y="-18"/>
      <point x="359" y="-18"/>
      <point x="373" y="-18" type="curve" smooth="yes"/>
      <point x="386" y="-17"/>
      <point x="390" y="-13"/>
      <point x="390" y="-2" type="curve" smooth="yes"/>
      <point x="390" y="327" type="line"/>
      <point x="92" y="327" type="line"/>
      <point x="92" y="393" type="line"/>
      <point x="460" y="393" type="line"/>
      <point x="460" y="-2" type="line" smooth="yes"/>
      <point x="460" y="-39"/>
      <point x="451" y="-58"/>
      <point x="425" y="-69" type="curve" smooth="yes"/>
      <point x="397" y="-79"/>
      <point x="352" y="-80"/>
    </contour>
    <contour>
      <point x="292" y="159" type="line"/>
      <point x="252" y="191"/>
      <point x="179" y="234"/>
      <point x="120" y="259" type="curve"/>
      <point x="158" y="304" type="line"/>
      <point x="218" y="278"/>
      <point x="290" y="239"/>
      <point x="330" y="209" type="curve"/>
    </contour>
    <contour>
      <point x="549" y="-20" type="curve"/>
      <point x="518" y="40" type="line"/>
      <point x="580" y="68"/>
      <point x="679" y="115"/>
      <point x="770" y="162" type="curve"/>
      <point x="784" y="105" type="line"/>
      <point x="704" y="61"/>
      <point x="615" y="14"/>
    </contour>
    <contour>
      <point x="722" y="-79" type="curve"/>
      <point x="718" y="-60"/>
      <point x="708" y="-34"/>
      <point x="699" y="-15" type="curve"/>
      <point x="750" y="-17"/>
      <point x="797" y="-17"/>
      <point x="811" y="-16" type="curve" smooth="yes"/>
      <point x="826" y="-15"/>
      <point x="830" y="-11"/>
      <point x="830" y="0" type="curve" smooth="yes"/>
      <point x="830" y="327" type="line"/>
      <point x="516" y="327" type="line"/>
      <point x="516" y="393" type="line"/>
      <point x="899" y="393" type="line"/>
      <point x="899" y="0" type="line" smooth="yes"/>
      <point x="899" y="-38"/>
      <point x="891" y="-57"/>
      <point x="864" y="-68" type="curve" smooth="yes"/>
      <point x="835" y="-79"/>
      <point x="789" y="-79"/>
    </contour>
    <contour>
      <point x="718" y="155" type="line"/>
      <point x="679" y="187"/>
      <point x="607" y="232"/>
      <point x="547" y="257" type="curve"/>
      <point x="584" y="302" type="line"/>
      <point x="645" y="276"/>
      <point x="717" y="235"/>
      <point x="756" y="205" type="curve"/>
    </contour>
    <contour>
      <point x="263" y="484" type="line"/>
      <point x="263" y="545" type="line"/>
      <point x="741" y="545" type="line"/>
      <point x="741" y="484" type="line"/>
    </contour>
    <contour>
      <point x="262" y="611" type="line"/>
      <point x="262" y="672" type="line"/>
      <point x="741" y="672" type="line"/>
      <point x="741" y="611" type="line"/>
    </contour>
  </outline>
</glyph>
<glyph name="u26C29" format="2">
  <advance width="1000"/>
  <unicode hex="26C29"/>
  <outline>
    <contour>
      <point x="227" y="406" type="line"/>
      <point x="227" y="483" type="line"/>
      <point x="465" y="483" type="line"/>
      <point x="465" y="406" type="line"/>
    </contour>
    <contour>
      <point x="541" y="406" type="line"/>
      <point x="541" y="483" type="line"/>
      <point x="771" y="483" type="line"/>
      <point x="771" y="406" type="line"/>
    </contour>
    <contour>
      <point x="465" y="540" type="line"/>
      <point x="159" y="540" type="line"/>
      <point x="159" y="350" type="line"/>
      <point x="465" y="350" type="line"/>
      <point x="465" y="288" type="line"/>
      <point x="146" y="288" type="line"/>
      <point x="146" y="231" type="line"/>
      <point x="462" y="231" type="line"/>
      <point x="460" y="196"/>
      <point x="448" y="165" type="qcurve"/>
      <point x="81" y="165" type="line"/>
      <point x="81" y="108" type="line"/>
      <point x="406" y="108" type="line"/>
      <point x="321" y="20"/>
      <point x="45" y="-22" type="qcurve"/>
      <point x="59" y="-32"/>
      <point x="91" y="-64"/>
      <point x="98" y="-75" type="qcurve"/>
      <point x="401" y="-21"/>
      <point x="502" y="107" type="qcurve"/>
      <point x="558" y="40"/>
      <point x="763" y="-54"/>
      <point x="897" y="-75" type="qcurve"/>
      <point x="905" y="-61"/>
      <point x="938" y="-27"/>
      <point x="954" y="-17" type="qcurve"/>
      <point x="834" y="-5"/>
      <point x="644" y="60"/>
      <point x="591" y="108" type="qcurve"/>
      <point x="930" y="108" type="line"/>
      <point x="930" y="165" type="line"/>
      <point x="527" y="165" type="line"/>
      <point x="537" y="191"/>
      <point x="540" y="231" type="qcurve"/>
      <point x="864" y="231" type="line"/>
      <point x="864" y="288" type="line"/>
      <point x="541" y="288" type="line"/>
      <point x="541" y="350" type="line"/>
      <point x="843" y="350" type="line"/>
      <point x="843" y="540" type="line"/>
      <point x="541" y="540" type="line"/>
      <point x="541" y="590" type="line"/>
      <point x="745" y="590" type="line"/>
      <point x="745" y="707" type="line"/>
      <point x="937" y="707" type="line"/>
      <point x="937" y="765" type="line"/>
      <point x="745" y="765" type="line"/>
      <point x="745" y="840" type="line"/>
      <point x="670" y="840" type="line"/>
      <point x="670" y="765" type="line"/>
      <point x="341" y="765" type="line"/>
      <point x="341" y="840" type="line"/>
      <point x="268" y="840" type="line"/>
      <point x="268" y="765" type="line"/>
      <point x="67" y="765" type="line"/>
      <point x="67" y="707" type="line"/>
      <point x="268" y="707" type="line"/>
      <point x="268" y="590" type="line"/>
      <point x="465" y="590" type="line"/>
    </contour>
    <contour>
      <point x="341" y="707" type="line"/>
      <point x="670" y="707" type="line"/>
      <point x="670" y="643" type="line"/>
      <point x="341" y="643" type="line"/>
    </contour>
  </outline>
</glyph>
<glyph name="u27BAB" format="2">
  <advance width="1000"/>
  <unicode hex="27BAB"/>
  <outline>
    <contour>
      <point x="558" y="580" type="line"/>
      <point x="496" y="612" type="line"/>
      <point x="387" y="481"/>
      <point x="222" y="336"/>
      <point x="38" y="276" type="curve"/>
      <point x="55" y="257"/>
      <point x="74" y="225"/>
      <point x="84" y="203" type="curve"/>
      <point x="130" y="221"/>
      <point x="177" y="245"/>
      <point x="222" y="271" type="curve"/>
      <point x="222" y="-81" type="line"/>
      <point x="298" y="-81" type="line"/>
      <point x="298" y="-40" type="line"/>
      <point x="708" y="-40" type="line"/>
      <point x="708" y="-79" type="line"/>
      <point x="787" y="-79" type="line"/>
      <point x="787" y="263" type="line"/>
      <point x="828" y="239"/>
      <point x="869" y="219"/>
      <point x="910" y="203" type="curve"/>
      <point x="923" y="225"/>
      <point x="948" y="257"/>
      <point x="967" y="274" type="curve"/>
      <point x="808" y="326"/>
      <point x="645" y="454"/>
      <point x="541" y="553" type="curve"/>
    </contour>
    <contour>
      <point x="708" y="27" type="line"/>
      <point x="298" y="27" type="line"/>
      <point x="298" y="224" type="line"/>
      <point x="708" y="224" type="line"/>
    </contour>
    <contour>
      <point x="742" y="291" type="curve"/>
      <point x="253" y="291" type="line"/>
      <point x="346" y="351"/>
      <point x="422" y="426"/>
      <point x="498" y="496" type="curve"/>
      <point x="573" y="437"/>
      <point x="650" y="351"/>
    </contour>
    <contour>
      <point x="498" y="748" type="curve"/>
      <point x="630" y="644"/>
      <point x="732" y="571"/>
      <point x="919" y="493" type="curve"/>
      <point x="930" y="512"/>
      <point x="952" y="546"/>
      <point x="969" y="562" type="curve"/>
      <point x="818" y="614"/>
      <point x="641" y="714"/>
      <point x="541" y="800" type="curve"/>
      <point x="559" y="823" type="line"/>
      <point x="491" y="857" type="line"/>
      <point x="400" y="738"/>
      <point x="219" y="624"/>
      <point x="43" y="561" type="curve"/>
      <point x="60" y="543"/>
      <point x="80" y="511"/>
      <point x="91" y="493" type="curve"/>
      <point x="238" y="553"/>
      <point x="383" y="643"/>
    </contour>
  </outline>
</glyph>
<glyph name="u27D2A" format="2">
  <advance width="1000"/>
  <unicode hex="27D2A"/>
  <outline>
    <contour>
      <point x="254" y="325" type="line"/>
      <point x="254" y="409" type="line"/>
      <point x="758" y="409" type="line"/>
      <point x="758" y="325" type="line"/>
    </contour>
    <contour>
      <point x="254" y="179" type="line"/>
      <point x="254" y="266" type="line"/>
      <point x="758" y="266" type="line"/>
      <point x="758" y="179" type="line"/>
    </contour>
    <contour>
      <point x="254" y="470" type="line"/>
      <point x="254" y="551" type="line"/>
      <point x="758" y="551" type="line"/>
      <point x="758" y="470" type="line"/>
    </contour>
    <contour>
      <point x="642" y="103" type="curve"/>
      <point x="584" y="55" type="line"/>
      <point x="694" y="10"/>
      <point x="804" y="-42"/>
      <point x="869" y="-82" type="curve"/>
      <point x="947" y="-33" type="line"/>
      <point x="874" y="8"/>
      <point x="752" y="61"/>
    </contour>
    <contour>
      <point x="417" y="67" type="curve"/>
      <point x="348" y="105" type="line"/>
      <point x="276" y="57"/>
      <point x="156" y="13"/>
      <point x="53" y="-15" type="curve"/>
      <point x="70" y="-31"/>
      <point x="97" y="-65"/>
      <point x="109" y="-83" type="curve"/>
      <point x="209" y="-50"/>
      <point x="336" y="8"/>
    </contour>
    <contour>
      <point x="202" y="813" type="curve"/>
      <point x="137" y="780" type="line"/>
      <point x="191" y="735"/>
      <point x="246" y="670"/>
      <point x="269" y="627" type="curve"/>
      <point x="338" y="662" type="line"/>
      <point x="314" y="705"/>
      <point x="258" y="767"/>
    </contour>
    <contour>
      <point x="870" y="785" type="curve"/>
      <point x="795" y="818" type="line"/>
      <point x="760" y="767"/>
      <point x="699" y="700"/>
      <point x="651" y="658" type="curve"/>
      <point x="717" y="627" type="line"/>
      <point x="764" y="667"/>
      <point x="825" y="731"/>
    </contour>
    <contour>
      <point x="537" y="615" type="line"/>
      <point x="537" y="840" type="line"/>
      <point x="462" y="840" type="line"/>
      <point x="462" y="615" type="line"/>
      <point x="181" y="615" type="line"/>
      <point x="181" y="118" type="line"/>
      <point x="833" y="118" type="line"/>
      <point x="833" y="615" type="line"/>
    </contour>
  </outline>
</glyph>
<glyph name="u27DD7" format="2">
  <advance width="1000"/>
  <unicode hex="27DD7"/>
  <outline>
    <contour>
      <point x="910" y="491" type="line"/>
      <point x="91" y="491" type="line"/>
      <point x="91" y="315" type="line"/>
      <point x="163" y="315" type="line"/>
      <point x="163" y="428" type="line"/>
      <point x="835" y="428" type="line"/>
      <point x="835" y="315" type="line"/>
      <point x="910" y="315" type="line"/>
    </contour>
    <contour>
      <point x="536" y="840" type="line"/>
      <point x="458" y="840" type="line"/>
      <point x="458" y="750" type="line"/>
      <point x="65" y="750" type="line"/>
      <point x="65" y="687" type="line"/>
      <point x="458" y="687" type="line"/>
      <point x="458" y="615" type="line"/>
      <point x="158" y="615" type="line"/>
      <point x="158" y="554" type="line"/>
      <point x="847" y="554" type="line"/>
      <point x="847" y="615" type="line"/>
      <point x="536" y="615" type="line"/>
      <point x="536" y="687" type="line"/>
      <point x="937" y="687" type="line"/>
      <point x="937" y="750" type="line"/>
      <point x="536" y="750" type="line"/>
    </contour>
    <contour>
      <point x="533" y="85" type="line"/>
      <point x="626" y="49"/>
      <point x="831" y="-48"/>
      <point x="886" y="-84" type="qcurve"/>
      <point x="948" y="-28" type="line"/>
      <point x="889" y="9"/>
      <point x="686" y="101"/>
      <point x="592" y="134" type="qcurve"/>
    </contour>
    <contour>
      <point x="775" y="361" type="line"/>
      <point x="227" y="361" type="line"/>
      <point x="227" y="298" type="line"/>
      <point x="459" y="298" type="line"/>
      <point x="459" y="296" type="line" smooth="yes"/>
      <point x="459" y="247"/>
      <point x="447" y="210" type="qcurve"/>
      <point x="128" y="210" type="line"/>
      <point x="128" y="147" type="line"/>
      <point x="413" y="147" type="line"/>
      <point x="325" y="38"/>
      <point x="67" y="-26" type="qcurve"/>
      <point x="106" y="-59"/>
      <point x="118" y="-83" type="qcurve"/>
      <point x="427" y="-4"/>
      <point x="509" y="147" type="qcurve"/>
      <point x="871" y="147" type="line"/>
      <point x="871" y="210" type="line"/>
      <point x="532" y="210" type="line"/>
      <point x="541" y="245"/>
      <point x="541" y="295" type="qcurve"/>
      <point x="541" y="298" type="line"/>
      <point x="775" y="298" type="line"/>
    </contour>
  </outline>
</glyph>
<glyph name="u2B0B1" format="2">
  <advance width="1000"/>
  <unicode hex="2B0B1"/>
  <outline>
    <contour>
      <point x="426" y="557"/>
      <point x="430" y="512" type="qcurve"/>
      <point x="354" y="497" type="line"/>
      <point x="350" y="542"/>
      <point x="310" y="661"/>
      <point x="281" y="711" type="qcurve"/>
      <point x="350" y="725" type="line"/>
      <point x="381" y="675"/>
    </contour>
    <contour>
      <point x="760" y="680" type="qcurve" smooth="yes"/>
      <point x="738" y="630"/>
      <point x="688" y="526"/>
      <point x="669" y="495" type="qcurve"/>
      <point x="602" y="512" type="line"/>
      <point x="626" y="556"/>
      <point x="673" y="683"/>
      <point x="688" y="731" type="qcurve"/>
      <point x="774" y="713" type="line"/>
      <point x="764" y="691"/>
    </contour>
    <contour>
      <point x="181" y="28"/>
      <point x="117" y="-82" type="qcurve"/>
      <point x="103" y="-69"/>
      <point x="67" y="-51"/>
      <point x="47" y="-45" type="qcurve"/>
      <point x="116" y="59"/>
      <point x="147" y="304"/>
      <point x="147" y="468" type="qcurve" smooth="yes"/>
      <point x="147" y="821" type="line"/>
      <point x="227" y="821" type="line"/>
      <point x="227" y="468" type="line" smooth="yes"/>
      <point x="227" y="291"/>
    </contour>
    <contour>
      <point x="902" y="-79" type="line"/>
      <point x="822" y="-79" type="line"/>
      <point x="822" y="822" type="line"/>
      <point x="902" y="822" type="line"/>
    </contour>
    <contour>
      <point x="561" y="455" type="line"/>
      <point x="780" y="455" type="line"/>
      <point x="780" y="388" type="line"/>
      <point x="562" y="388" type="line"/>
      <point x="605" y="350"/>
      <point x="768" y="181"/>
      <point x="793" y="153" type="qcurve"/>
      <point x="729" y="95" type="line"/>
      <point x="707" y="126"/>
      <point x="613" y="250"/>
      <point x="561" y="309" type="qcurve"/>
      <point x="561" y="-53" type="line"/>
      <point x="482" y="-53" type="line"/>
      <point x="482" y="311" type="line"/>
      <point x="434" y="228"/>
      <point x="318" y="81"/>
      <point x="261" y="36" type="qcurve"/>
      <point x="249" y="63"/>
      <point x="217" y="105" type="qcurve"/>
      <point x="279" y="152"/>
      <point x="407" y="310"/>
      <point x="447" y="388" type="qcurve"/>
      <point x="261" y="388" type="line"/>
      <point x="261" y="455" type="line"/>
      <point x="482" y="455" type="line"/>
      <point x="482" y="793" type="line"/>
      <point x="561" y="793" type="line"/>
    </contour>
  </outline>
</glyph>
<glyph name="u2B823" format="2">
  <advance width="1000"/>
  <unicode hex="2B823"/>
  <outline>
    <contour>
      <point x="332" y="218" type="curve"/>
      <point x="257" y="236" type="line"/>
      <point x="216" y="149"/>
      <point x="146" y="63"/>
      <point x="71" y="6" type="curve"/>
      <point x="90" y="-4"/>
      <point x="121" y="-26"/>
      <point x="135" y="-38" type="curve"/>
      <point x="207" y="24"/>
      <point x="284" y="120"/>
    </contour>
    <contour>
      <point x="728" y="237" type="curve"/>
      <point x="666" y="208" type="line"/>
      <point x="743" y="137"/>
      <point x="833" y="36"/>
      <point x="873" y="-27" type="curve"/>
      <point x="940" y="7" type="line"/>
      <point x="898" y="71"/>
      <point x="806" y="167"/>
    </contour>
    <contour>
      <point x="351" y="506"/>
      <point x="425" y="662"/>
      <point x="487" y="819" type="curve"/>
      <point x="409" y="846" type="line"/>
      <point x="351" y="680"/>
      <point x="273" y="520"/>
      <point x="222" y="439" type="curve" smooth="yes"/>
      <point x="193" y="393"/>
      <point x="172" y="366"/>
      <point x="150" y="359" type="curve"/>
      <point x="160" y="336"/>
      <point x="173" y="301"/>
      <point x="177" y="282" type="curve"/>
      <point x="188" y="292"/>
      <point x="226" y="297"/>
      <point x="286" y="297" type="curve" smooth="yes"/>
      <point x="507" y="297" type="line"/>
      <point x="507" y="17" type="line" smooth="yes"/>
      <point x="507" y="3"/>
      <point x="504" y="-1"/>
      <point x="488" y="-1" type="curve" smooth="yes"/>
      <point x="471" y="-2"/>
      <point x="418" y="-2"/>
      <point x="360" y="-1" type="curve"/>
      <point x="371" y="-22"/>
      <point x="384" y="-56"/>
      <point x="389" y="-79" type="curve"/>
      <point x="460" y="-79"/>
      <point x="511" y="-77"/>
      <point x="542" y="-64" type="curve" smooth="yes"/>
      <point x="573" y="-51"/>
      <point x="583" y="-28"/>
      <point x="583" y="16" type="curve" smooth="yes"/>
      <point x="583" y="297" type="line"/>
      <point x="874" y="297" type="line"/>
      <point x="874" y="370" type="line"/>
      <point x="583" y="370" type="line"/>
      <point x="583" y="553" type="line"/>
      <point x="135" y="553" type="line"/>
      <point x="135" y="483" type="line"/>
      <point x="507" y="483" type="line"/>
      <point x="507" y="370" type="line"/>
      <point x="264" y="370" type="line"/>
    </contour>
    <contour>
      <point x="97" y="656" type="line"/>
      <point x="917" y="656" type="line"/>
      <point x="917" y="727" type="line"/>
      <point x="97" y="727" type="line"/>
    </contour>
  </outline>
</glyph>
<glyph name="u2B94E" format="2">
  <advance width="1000"/>
  <unicode hex="2B94E"/>
  <outline>
    <contour>
      <point x="655" y="252" type="curve" smooth="yes"/>
      <point x="552" y="252"/>
      <point x="526" y="266"/>
      <point x="526" y="320" type="curve" smooth="yes"/>
      <point x="526" y="450" type="line"/>
      <point x="166" y="450" type="line"/>
      <point x="166" y="659" type="line"/>
      <point x="494" y="659" type="line"/>
      <point x="522" y="681"/>
      <point x="554" y="709"/>
      <point x="577" y="735" type="curve"/>
      <point x="264" y="735" type="line"/>
      <point x="264" y="792" type="line"/>
      <point x="637" y="792" type="line"/>
      <point x="650" y="795" type="line"/>
      <point x="702" y="772" type="line"/>
      <point x="666" y="733"/>
      <point x="626" y="692"/>
      <point x="587" y="659" type="curve"/>
      <point x="867" y="659" type="line"/>
      <point x="867" y="450" type="line"/>
      <point x="600" y="450" type="line"/>
      <point x="600" y="347" type="line" smooth="yes"/>
      <point x="600" y="327"/>
      <point x="609" y="324"/>
      <point x="661" y="324" type="curve" smooth="yes"/>
      <point x="685" y="324"/>
      <point x="804" y="324"/>
      <point x="836" y="324" type="curve" smooth="yes"/>
      <point x="878" y="324"/>
      <point x="887" y="335"/>
      <point x="894" y="404" type="curve"/>
      <point x="910" y="397"/>
      <point x="932" y="389"/>
      <point x="953" y="386" type="curve"/>
      <point x="944" y="274"/>
      <point x="922" y="252"/>
      <point x="841" y="252" type="curve" smooth="yes"/>
      <point x="818" y="252"/>
      <point x="676" y="252"/>
    </contour>
    <contour>
      <point x="715" y="-88" type="line"/>
      <point x="603" y="-43"/>
      <point x="384" y="22"/>
      <point x="221" y="60" type="curve"/>
      <point x="256" y="121" type="line"/>
      <point x="414" y="87"/>
      <point x="634" y="26"/>
      <point x="750" y="-17" type="curve"/>
    </contour>
    <contour>
      <point x="683" y="94" type="line"/>
      <point x="606" y="125"/>
      <point x="455" y="174"/>
      <point x="346" y="206" type="curve"/>
      <point x="379" y="265" type="line"/>
      <point x="485" y="237"/>
      <point x="638" y="192"/>
      <point x="717" y="162" type="curve"/>
    </contour>
    <contour>
      <point x="86" y="218" type="curve"/>
      <point x="78" y="241"/>
      <point x="63" y="266"/>
      <point x="45" y="287" type="curve"/>
      <point x="281" y="325"/>
      <point x="440" y="352"/>
      <point x="468" y="601" type="curve"/>
      <point x="239" y="601" type="line"/>
      <point x="239" y="515" type="line"/>
      <point x="790" y="515" type="line"/>
      <point x="790" y="601" type="line"/>
      <point x="545" y="601" type="line"/>
      <point x="514" y="332"/>
      <point x="348" y="264"/>
    </contour>
    <contour>
      <point x="89" y="576" type="curve"/>
      <point x="80" y="593"/>
      <point x="64" y="615"/>
      <point x="46" y="630" type="curve"/>
      <point x="161" y="691"/>
      <point x="242" y="775"/>
      <point x="285" y="843" type="curve"/>
      <point x="355" y="828" type="line"/>
      <point x="304" y="753"/>
      <point x="203" y="637"/>
    </contour>
  </outline>
</glyph>
<glyph name="u2D546" format="2">
  <advance width="1000"/>
  <unicode hex="2D546"/>
  <outline>
    <contour>
      <point x="202" y="806" type="curve"/>
      <point x="137" y="776" type="line"/>
      <point x="191" y="715"/>
      <point x="246" y="627"/>
      <point x="269" y="569" type="curve"/>
      <point x="338" y="603" type="line"/>
      <point x="314" y="662"/>
      <point x="258" y="745"/>
    </contour>
    <contour>
      <point x="870" y="783" type="curve"/>
      <point x="795" y="814" type="line"/>
      <point x="760" y="746"/>
      <point x="699" y="654"/>
      <point x="651" y="598" type="curve"/>
      <point x="717" y="569" type="line"/>
      <point x="764" y="624"/>
      <point x="825" y="709"/>
    </contour>
    <contour>
      <point x="537" y="553" type="line"/>
      <point x="537" y="840" type="line"/>
      <point x="462" y="840" type="line"/>
      <point x="462" y="553" type="line"/>
      <point x="198" y="553" type="line"/>
      <point x="198" y="119" type="line"/>
      <point x="273" y="119" type="line"/>
      <point x="273" y="486" type="line"/>
      <point x="746" y="486" type="line"/>
      <point x="746" y="119" type="line"/>
      <point x="824" y="119" type="line"/>
      <point x="824" y="553" type="line"/>
    </contour>
    <contour>
      <point x="569" y="140" type="curve"/>
      <point x="523" y="92" type="line"/>
      <point x="652" y="36"/>
      <point x="784" y="-31"/>
      <point x="864" y="-80" type="curve"/>
      <point x="921" y="-28" type="line"/>
      <point x="836" y="20"/>
      <point x="697" y="87"/>
    </contour>
    <contour>
      <point x="549" y="413" type="curve"/>
      <point x="471" y="413" type="line"/>
      <point x="454" y="165"/>
      <point x="412" y="39"/>
      <point x="62" y="-16" type="curve"/>
      <point x="76" y="-31"/>
      <point x="94" y="-60"/>
      <point x="99" y="-79" type="curve"/>
      <point x="471" y="-14"/>
      <point x="529" y="134"/>
    </contour>
  </outline>
</glyph>
<glyph name="u2DEB3" format="2">
  <advance width="1000"/>
  <unicode hex="2DEB3"/>
  <outline>
    <contour>
      <point x="0" y="0"/>
    </contour>
    <contour>
      <point x="188" y="73" type="line"/>
      <point x="259" y="75" type="line"/>
      <point x="259" y="329" type="line"/>
      <point x="367" y="329" type="line"/>
      <point x="367" y="394" type="line"/>
      <point x="259" y="394" type="line"/>
      <point x="259" y="583" type="line"/>
      <point x="375" y="583" type="line"/>
      <point x="375" y="652" type="line"/>
      <point x="259" y="652" type="line"/>
      <point x="259" y="839" type="line"/>
      <point x="188" y="839" type="line"/>
      <point x="188" y="652" type="line"/>
      <point x="61" y="652" type="line"/>
      <point x="61" y="583" type="line"/>
      <point x="188" y="583" type="line"/>
      <point x="188" y="394" type="line"/>
      <point x="73" y="394" type="line"/>
      <point x="73" y="329" type="line"/>
      <point x="188" y="329" type="line"/>
    </contour>
    <contour>
      <point x="0" y="0"/>
    </contour>
    <contour>
      <point x="622" y="841" type="curve"/>
      <point x="552" y="841" type="line"/>
      <point x="554" y="764"/>
      <point x="555" y="693"/>
      <point x="554" y="626" type="curve"/>
      <point x="410" y="626" type="line"/>
      <point x="410" y="557" type="line"/>
      <point x="553" y="557" type="line"/>
      <point x="551" y="489"/>
      <point x="547" y="426"/>
      <point x="538" y="368" type="curve"/>
      <point x="450" y="421" type="line"/>
      <point x="411" y="370" type="line"/>
      <point x="446" y="348"/>
      <point x="487" y="323"/>
      <point x="526" y="297" type="curve"/>
      <point x="495" y="156"/>
      <point x="434" y="52"/>
      <point x="318" y="-22" type="curve"/>
      <point x="333" y="-36"/>
      <point x="359" y="-69"/>
      <point x="367" y="-83" type="curve"/>
      <point x="486" y="2"/>
      <point x="550" y="111"/>
      <point x="585" y="257" type="curve"/>
      <point x="635" y="222"/>
      <point x="681" y="189"/>
      <point x="711" y="162" type="curve"/>
      <point x="753" y="222" type="line"/>
      <point x="716" y="252"/>
      <point x="660" y="291"/>
      <point x="599" y="329" type="curve"/>
      <point x="610" y="398"/>
      <point x="617" y="473"/>
      <point x="620" y="557" type="curve"/>
      <point x="763" y="557" type="line"/>
      <point x="759" y="158"/>
      <point x="751" y="-79"/>
      <point x="873" y="-79" type="curve" smooth="yes"/>
      <point x="931" y="-79"/>
      <point x="955" y="-41"/>
      <point x="963" y="92" type="curve"/>
      <point x="945" y="98"/>
      <point x="919" y="113"/>
      <point x="904" y="126" type="curve"/>
      <point x="901" y="26"/>
      <point x="894" y="-8"/>
      <point x="877" y="-8" type="curve" smooth="yes"/>
      <point x="822" y="-8"/>
      <point x="826" y="211"/>
      <point x="835" y="626" type="curve"/>
      <point x="622" y="626" type="line"/>
      <point x="623" y="693"/>
      <point x="623" y="764"/>
    </contour>
    <contour>
      <point x="388" y="142" type="line"/>
      <point x="46" y="67" type="line"/>
      <point x="58" y="-6" type="line"/>
      <point x="400" y="79" type="line"/>
    </contour>
  </outline>
</glyph>
<glyph name="u30021" format="2">
  <advance width="1000"/>
  <unicode hex="30021"/>
  <outline>
    <contour>
      <point x="159" y="713" type="line"/>
      <point x="82" y="713" type="line"/>
      <point x="82" y="61" type="line"/>
      <point x="159" y="60" type="line"/>
    </contour>
    <contour>
      <point x="358" y="822" type="line"/>
      <point x="281" y="822" type="line"/>
      <point x="281" y="-69" type="line"/>
      <point x="358" y="-70" type="line"/>
    </contour>
    <contour>
      <point x="433" y="687" type="line"/>
      <point x="557" y="687" type="line"/>
      <point x="483" y="678" type="line"/>
      <point x="519" y="499"/>
      <point x="569" y="334"/>
      <point x="644" y="203" type="curve"/>
      <point x="572" y="106"/>
      <point x="488" y="35"/>
      <point x="394" y="-12" type="curve"/>
      <point x="412" y="-25"/>
      <point x="436" y="-52"/>
      <point x="447" y="-71" type="curve"/>
      <point x="540" y="-21"/>
      <point x="620" y="45"/>
      <point x="689" y="132" type="curve"/>
      <point x="745" y="49"/>
      <point x="816" y="-19"/>
      <point x="907" y="-70" type="curve"/>
      <point x="920" y="-51"/>
      <point x="946" y="-25"/>
      <point x="966" y="-12" type="curve"/>
      <point x="868" y="36"/>
      <point x="796" y="107"/>
      <point x="736" y="198" type="curve"/>
      <point x="828" y="336"/>
      <point x="898" y="519"/>
      <point x="927" y="748" type="curve"/>
      <point x="870" y="761" type="line"/>
      <point x="857" y="758" type="line"/>
      <point x="433" y="758" type="line"/>
    </contour>
    <contour>
      <point x="557" y="687" type="curve"/>
      <point x="836" y="687" type="line"/>
      <point x="809" y="527"/>
      <point x="760" y="388"/>
      <point x="692" y="274" type="curve"/>
      <point x="628" y="394"/>
      <point x="586" y="537"/>
    </contour>
  </outline>
</glyph>
<glyph name="u3005C" format="2">
  <advance width="1000"/>
  <unicode hex="3005C"/>
  <outline>
    <contour>
      <point x="491" y="847" type="line"/>
      <point x="516" y="803"/>
      <point x="565" y="704"/>
      <point x="577" y="671" type="qcurve"/>
      <point x="501" y="641" type="line"/>
      <point x="490" y="678"/>
      <point x="443" y="782"/>
      <point x="420" y="823" type="qcurve"/>
    </contour>
    <contour>
      <point x="60" y="617" type="line"/>
      <point x="940" y="617" type="line"/>
      <point x="940" y="539" type="line"/>
      <point x="681" y="539" type="line"/>
      <point x="681" y="-78" type="line"/>
      <point x="604" y="-78" type="line"/>
      <point x="604" y="539" type="line"/>
      <point x="397" y="539" type="line"/>
      <point x="397" y="-78" type="line"/>
      <point x="318" y="-78" type="line"/>
      <point x="320" y="539" type="line"/>
      <point x="60" y="539" type="line"/>
    </contour>
    <contour>
      <point x="267" y="448" type="curve"/>
      <point x="192" y="462" type="line"/>
      <point x="162" y="334"/>
      <point x="110" y="207"/>
      <point x="45" y="124" type="curve"/>
      <point x="64" y="115"/>
      <point x="98" y="97"/>
      <point x="113" y="87" type="curve"/>
      <point x="177" y="174"/>
      <point x="233" y="310"/>
    </contour>
    <contour>
      <point x="797" y="472" type="curve"/>
      <point x="730" y="444" type="line"/>
      <point x="796" y="336"/>
      <point x="862" y="193"/>
      <point x="883" y="103" type="curve"/>
      <point x="958" y="135" type="line"/>
      <point x="934" y="226"/>
      <point x="865" y="365"/>
    </contour>
  </outline>
</glyph>
<glyph name="u3054E" format="2">
  <advance width="1000"/>
  <unicode hex="3054E"/>
  <outline>
    <contour>
      <point x="114" y="464" type="curve"/>
      <point x="135" y="472"/>
      <point x="176" y="476"/>
      <point x="427" y="502" type="curve"/>
      <point x="438" y="483"/>
      <point x="448" y="466"/>
      <point x="455" y="451" type="curve"/>
      <point x="519" y="477" type="line"/>
      <point x="496" y="520"/>
      <point x="447" y="588"/>
      <point x="404" y="640" type="curve"/>
      <point x="346" y="618" type="line"/>
      <point x="393" y="552" type="line"/>
      <point x="192" y="536" type="line"/>
      <point x="226" y="578"/>
      <point x="262" y="627"/>
      <point x="293" y="679" type="curve"/>
      <point x="533" y="679" type="line"/>
      <point x="533" y="742" type="line"/>
      <point x="331" y="742" type="line"/>
      <point x="372" y="823" type="line"/>
      <point x="298" y="840" type="line"/>
      <point x="284" y="807"/>
      <point x="269" y="774"/>
      <point x="252" y="742" type="curve"/>
      <point x="82" y="742" type="line"/>
      <point x="82" y="679" type="line"/>
      <point x="214" y="679" type="line"/>
      <point x="187" y="634"/>
      <point x="161" y="598"/>
      <point x="150" y="583" type="curve" smooth="yes"/>
      <point x="126" y="552"/>
      <point x="107" y="531"/>
      <point x="86" y="528" type="curve"/>
      <point x="96" y="510"/>
      <point x="110" y="477"/>
    </contour>
    <contour>
      <point x="190" y="358" type="line"/>
      <point x="397" y="358" type="line"/>
      <point x="397" y="181" type="line"/>
      <point x="315" y="154"/>
      <point x="238" y="130"/>
      <point x="178" y="113" type="curve"/>
      <point x="188" y="161"/>
      <point x="190" y="207"/>
      <point x="190" y="247" type="curve" smooth="yes"/>
      <point x="190" y="267" type="line"/>
      <point x="244" y="248"/>
      <point x="301" y="221"/>
      <point x="332" y="200" type="curve"/>
      <point x="386" y="245" type="line"/>
      <point x="351" y="266"/>
      <point x="288" y="293"/>
      <point x="235" y="311" type="curve"/>
      <point x="190" y="276" type="line"/>
    </contour>
    <contour>
      <point x="472" y="417" type="line"/>
      <point x="116" y="417" type="line"/>
      <point x="116" y="248" type="line" smooth="yes"/>
      <point x="116" y="162"/>
      <point x="109" y="46"/>
      <point x="40" y="-40" type="curve"/>
      <point x="58" y="-48"/>
      <point x="91" y="-70"/>
      <point x="91" y="-82" type="curve"/>
      <point x="135" y="-30"/>
      <point x="162" y="33"/>
      <point x="175" y="96" type="curve"/>
      <point x="204" y="53" type="line"/>
      <point x="263" y="72"/>
      <point x="331" y="95"/>
      <point x="397" y="119" type="curve"/>
      <point x="397" y="-3" type="line" smooth="yes"/>
      <point x="397" y="-12"/>
      <point x="393" y="-15"/>
      <point x="381" y="-15" type="curve" smooth="yes"/>
      <point x="367" y="-16"/>
      <point x="327" y="-16"/>
      <point x="281" y="-15" type="curve"/>
      <point x="295" y="-33"/>
      <point x="305" y="-59"/>
      <point x="310" y="-77" type="curve"/>
      <point x="375" y="-77"/>
      <point x="411" y="-76"/>
      <point x="438" y="-66" type="curve" smooth="yes"/>
      <point x="467" y="-54"/>
      <point x="472" y="-35"/>
      <point x="472" y="-3" type="curve" smooth="yes"/>
    </contour>
    <contour>
      <point x="644" y="553" type="curve"/>
      <point x="654" y="583" type="line"/>
      <point x="815" y="583" type="line"/>
      <point x="801" y="460"/>
      <point x="770" y="341"/>
      <point x="730" y="246" type="curve"/>
      <point x="688" y="344"/>
      <point x="657" y="459"/>
    </contour>
    <contour>
      <point x="713" y="831" type="curve"/>
      <point x="639" y="840" type="line"/>
      <point x="616" y="678"/>
      <point x="576" y="520"/>
      <point x="497" y="417" type="curve"/>
      <point x="516" y="404"/>
      <point x="537" y="381"/>
      <point x="549" y="367" type="curve"/>
      <point x="567" y="390"/>
      <point x="584" y="416"/>
      <point x="598" y="444" type="curve"/>
      <point x="615" y="357"/>
      <point x="647" y="259"/>
      <point x="688" y="171" type="curve"/>
      <point x="641" y="90"/>
      <point x="578" y="22"/>
      <point x="490" y="-31" type="curve"/>
      <point x="509" y="-44"/>
      <point x="536" y="-69"/>
      <point x="546" y="-83" type="curve"/>
      <point x="623" y="-33"/>
      <point x="681" y="31"/>
      <point x="730" y="100" type="curve"/>
      <point x="772" y="33"/>
      <point x="834" y="-33"/>
      <point x="904" y="-79" type="curve"/>
      <point x="916" y="-62"/>
      <point x="942" y="-35"/>
      <point x="959" y="-22" type="curve"/>
      <point x="880" y="25"/>
      <point x="814" y="91"/>
      <point x="768" y="165" type="curve"/>
      <point x="831" y="281"/>
      <point x="866" y="420"/>
      <point x="888" y="583" type="curve"/>
      <point x="951" y="583" type="line"/>
      <point x="951" y="649" type="line"/>
      <point x="674" y="649" type="line"/>
      <point x="689" y="707"/>
      <point x="702" y="769"/>
    </contour>
  </outline>
</glyph>
<glyph name="u27DD7.alt" format="2">
  <advance width="1000"/>
  <outline>
    <contour>
      <point x="94" y="-80" type="curve"/>
      <point x="85" y="-61"/>
      <point x="67" y="-37"/>
      <point x="46" y="-19" type="curve"/>
      <point x="313" y="17"/>
      <point x="463" y="107"/>
      <point x="463" y="304" type="curve"/>
      <point x="231" y="304" type="line"/>
      <point x="231" y="368" type="line"/>
      <point x="769" y="368" type="line"/>
      <point x="769" y="304" type="line"/>
      <point x="539" y="304" type="line"/>
      <point x="539" y="79"/>
      <point x="377" y="-37"/>
    </contour>
    <contour>
      <point x="93" y="151" type="line"/>
      <point x="93" y="217" type="line"/>
      <point x="907" y="217" type="line"/>
      <point x="907" y="151" type="line"/>
    </contour>
    <contour>
      <point x="896" y="-84" type="line"/>
      <point x="818" y="-36"/>
      <point x="671" y="33"/>
      <point x="543" y="81" type="curve"/>
      <point x="598" y="127" type="line"/>
      <point x="728" y="83"/>
      <point x="872" y="19"/>
      <point x="954" y="-30" type="curve"/>
    </contour>
    <contour>
      <point x="120" y="318" type="line"/>
      <point x="120" y="494" type="line"/>
      <point x="880" y="494" type="line"/>
      <point x="880" y="318" type="line"/>
      <point x="817" y="318" type="line"/>
      <point x="817" y="430" type="line"/>
      <point x="183" y="430" type="line"/>
      <point x="183" y="318" type="line"/>
    </contour>
    <contour>
      <point x="145" y="555" type="line"/>
      <point x="145" y="618" type="line"/>
      <point x="462" y="618" type="line"/>
      <point x="462" y="688" type="line"/>
      <point x="84" y="688" type="line"/>
      <point x="84" y="753" type="line"/>
      <point x="462" y="753" type="line"/>
      <point x="462" y="843" type="line"/>
      <point x="538" y="843" type="line"/>
      <point x="538" y="753" type="line"/>
      <point x="916" y="753" type="line"/>
      <point x="916" y="688" type="line"/>
      <point x="538" y="688" type="line"/>
      <point x="538" y="618" type="line"/>
      <point x="855" y="618" type="line"/>
      <point x="855" y="555" type="line"/>
    </contour>
  </outline>
</glyph>
<glyph name="uni5903.alt" format="2">
  <advance width="1000" height="1000"/>
  <note>
cid14001
</note>
  <outline>
    <contour>
      <point x="746" y="378" type="line"/>
      <point x="157" y="378" type="line"/>
      <point x="157" y="312" type="line"/>
      <point x="293" y="312" type="line"/>
      <point x="244" y="296" type="line"/>
      <point x="290" y="205"/>
      <point x="352" y="133"/>
      <point x="432" y="77" type="curve"/>
      <point x="321" y="29"/>
      <point x="188" y="1"/>
      <point x="44" y="-15" type="curve"/>
      <point x="59" y="-31"/>
      <point x="78" y="-63"/>
      <point x="84" y="-81" type="curve"/>
      <point x="238" y="-60"/>
      <point x="381" y="-26"/>
      <point x="502" y="34" type="curve"/>
      <point x="614" y="-27"/>
      <point x="753" y="-64"/>
      <point x="920" y="-82" type="curve"/>
      <point x="930" y="-63"/>
      <point x="949" y="-33"/>
      <point x="965" y="-17" type="curve"/>
      <point x="811" y="-4"/>
      <point x="681" y="26"/>
      <point x="575" y="74" type="curve"/>
      <point x="679" y="141"/>
      <point x="761" y="230"/>
      <point x="811" y="353" type="curve"/>
      <point x="761" y="381" type="line"/>
    </contour>
    <contour>
      <point x="313" y="312" type="curve"/>
      <point x="705" y="312" type="line"/>
      <point x="659" y="226"/>
      <point x="590" y="161"/>
      <point x="504" y="112" type="curve"/>
      <point x="419" y="163"/>
      <point x="355" y="229"/>
    </contour>
    <contour>
      <point x="710" y="794" type="curve"/>
      <point x="118" y="794" type="line"/>
      <point x="118" y="728" type="line"/>
      <point x="314" y="728" type="line"/>
      <point x="286" y="575"/>
      <point x="203" y="486"/>
      <point x="47" y="435" type="curve"/>
      <point x="64" y="422"/>
      <point x="93" y="395"/>
      <point x="103" y="381" type="curve"/>
      <point x="266" y="446"/>
      <point x="358" y="548"/>
      <point x="393" y="728" type="curve"/>
      <point x="621" y="728" type="line"/>
      <point x="609" y="678"/>
      <point x="595" y="627"/>
      <point x="582" y="588" type="curve"/>
      <point x="833" y="588" type="line"/>
      <point x="824" y="516"/>
      <point x="812" y="489"/>
      <point x="799" y="477" type="curve" smooth="yes"/>
      <point x="792" y="470"/>
      <point x="783" y="469"/>
      <point x="766" y="469" type="curve" smooth="yes"/>
      <point x="749" y="469"/>
      <point x="700" y="470"/>
      <point x="654" y="474" type="curve"/>
      <point x="665" y="457"/>
      <point x="677" y="426"/>
      <point x="678" y="408" type="curve"/>
      <point x="726" y="406"/>
      <point x="773" y="406"/>
      <point x="797" y="407" type="curve" smooth="yes"/>
      <point x="825" y="408"/>
      <point x="843" y="414"/>
      <point x="860" y="429" type="curve" smooth="yes"/>
      <point x="884" y="451"/>
      <point x="898" y="503"/>
      <point x="911" y="625" type="curve"/>
      <point x="913" y="635"/>
      <point x="914" y="654"/>
      <point x="914" y="654" type="curve"/>
      <point x="676" y="654" type="line"/>
      <point x="688" y="699"/>
      <point x="700" y="750"/>
    </contour>
  </outline>
</glyph>
